<?xml version="1.0" encoding="utf-8"?>
<!-- Generator: Adobe Illustrator 27.5.0, SVG Export Plug-In . SVG Version: 6.00 Build 0)  -->
<svg version="1.1" xmlns="http://www.w3.org/2000/svg" xmlns:xlink="http://www.w3.org/1999/xlink" x="0px" y="0px"
	 viewBox="0 0 500 500" style="enable-background:new 0 0 500 500;" xml:space="preserve">
<g id="BACKGROUND">
</g>
<g id="OBJECTS">
	<g>
		<g>
			<path style="fill:none;stroke:#D4C7E5;stroke-width:2;stroke-linecap:round;stroke-miterlimit:10;stroke-dasharray:6;" d="
				M329.238,389.288c27.429-3.142,47.786-30.601,56.495-48.678c8.428-17.493,39.826,0.439,29.541,8.796
				c-10.286,8.357-25.226-13.186-18.601-31.697c4.85-13.552,27.279-27.12,23.262-43.333"/>
			<path style="fill:none;stroke:#D4C7E5;stroke-width:2;stroke-linecap:round;stroke-miterlimit:10;stroke-dasharray:6;" d="
				M75.202,242.946c12.536-25.122,21.214-74.225,14.464-91.459c-6.75-17.234-30.787-19.061-28.355-1.051
				c2.571,19.04,40.783,12.746,46.301-3.969c5.518-16.714,31.472-51.714,86.959-56.393"/>
			<path style="fill:none;stroke:#D4C7E5;stroke-width:2;stroke-linecap:round;stroke-miterlimit:10;stroke-dasharray:6;" d="
				M216.035,376.244c-25.44-5.617-67.441,7.434-114.262-1.189s-57.535-55.831-42.964-84.941"/>
			<path style="fill:none;stroke:#D4C7E5;stroke-width:2;stroke-linecap:round;stroke-miterlimit:10;stroke-dasharray:6;" d="
				M293.277,108.595c14.961,18.907,104.961,14.222,137.104,48.386c32.143,34.164,9.643,86.204,3.214,94.577"/>
		</g>
		<path style="fill:#EEEAF9;" d="M222.769,75.76c66.316-5.119,70.471,45.877,120.582,75.384
			c21.847,12.864,98.745,11.018,98.662,79.036c-0.066,54.467-63.668,70.502-71.206,92.248c-7.538,21.746-5.187,81.966-64.543,92.904
			c-78.321,14.433-96.822-51.165-144.116-54.986c-47.294-3.821-99.956-8.144-108.375-67.777
			c-8.902-63.049,65.419-89.34,76.532-121.919C141.417,138.07,148.086,81.525,222.769,75.76z"/>
		
			<ellipse transform="matrix(0.7071 -0.7071 0.7071 0.7071 -100.9479 249.0941)" style="opacity:0.74;fill:#AC6EF4;" cx="250.209" cy="246.402" rx="102.034" ry="102.034"/>
		<g>
			<g>
				<rect x="263.664" y="82.443" style="fill:#03235D;" width="141.305" height="82.209"/>
				<rect x="266.04" y="84.819" style="fill:#FFFFFF;" width="136.554" height="77.458"/>
				<g>
					<path style="fill:#FFAF00;" d="M369.492,95.609h-72.203c-1.243,0-2.25,1.007-2.25,2.25v53.628h76.703V97.859
						C371.742,96.617,370.734,95.609,369.492,95.609z"/>
					<path style="fill:#FFFFFF;" d="M368.048,102.104h-69.316c-1.243,0-2.25,1.007-2.25,2.25v46.081h73.816v-46.081
						C370.298,103.112,369.291,102.104,368.048,102.104z"/>
					<path style="fill:#FFAF00;" d="M378.335,106.746l-6.591,44.746h-76.709l-5.956-40.415c-0.193-1.307,0.821-2.481,2.142-2.481
						h55.775c1.196,0,2.165-0.969,2.165-2.165l0,0c0-1.196,0.969-2.165,2.165-2.165h24.868
						C377.514,104.265,378.527,105.439,378.335,106.746z"/>
				</g>
				<polygon style="fill:#03235D;" points="337.951,174.217 337.951,164.652 330.682,164.652 330.682,174.217 309.461,178.857 
					309.461,180.59 330.682,180.59 337.951,180.59 359.172,180.59 359.172,178.857 				"/>
			</g>
			<g>
				<polygon style="fill:#D4C7E5;" points="391.128,251.558 388.023,236.48 377.607,186.006 402.151,236.78 				"/>
				<polygon style="fill:#D4C7E5;" points="377.601,186.013 421.963,225.467 408.812,233.245 				"/>
				<polygon style="fill:#AC6EF4;" points="408.812,233.245 400.721,233.807 377.601,186.013 				"/>
				<polygon style="fill:#AC6EF4;" points="388.023,236.48 382.672,236.374 377.607,186.006 				"/>
			</g>
			<g>
				<polygon style="fill:#D4C7E5;" points="389.448,299.514 390.39,290.113 393.533,258.639 398.611,292.876 				"/>
				<polygon style="fill:#D4C7E5;" points="393.528,258.642 412.288,289.878 403.16,292.025 				"/>
				<polygon style="fill:#AC6EF4;" points="403.16,292.025 398.318,290.873 393.528,258.642 				"/>
				<polygon style="fill:#AC6EF4;" points="390.39,290.113 387.275,289.072 393.533,258.639 				"/>
			</g>
			<g>
				<polygon style="fill:#D4C7E5;" points="364.403,320.963 368.874,316.699 383.839,302.419 371.777,321.572 				"/>
				<polygon style="fill:#D4C7E5;" points="383.835,302.418 379.841,325.909 374.397,323.087 				"/>
				<polygon style="fill:#AC6EF4;" points="374.397,323.087 372.485,320.452 383.835,302.418 				"/>
				<polygon style="fill:#AC6EF4;" points="368.874,316.699 367.772,314.855 383.839,302.419 				"/>
			</g>
			<g>
				<rect x="266.076" y="336.021" style="fill:#03235D;" width="109.524" height="63.72"/>
				<rect x="267.918" y="337.862" style="fill:#FFFFFF;" width="105.842" height="60.037"/>
				<polygon style="fill:#03235D;" points="323.656,407.154 323.656,399.74 318.021,399.74 318.021,407.154 301.573,410.75 
					301.573,412.093 318.021,412.093 323.656,412.093 340.104,412.093 340.104,410.75 				"/>
				<path style="fill:#FFAF00;" d="M286.319,355.469h7.919c0,4.344-3.575,7.919-7.919,7.919c-4.344,0-7.919-3.575-7.919-7.919
					c0-4.344,3.575-7.919,7.919-7.919c2.45,0,4.767,1.137,6.265,3.075L286.319,355.469z"/>
				<g>
					<rect x="308.839" y="349.406" style="fill:#D4C7E5;" width="40.461" height="1.361"/>
					<rect x="308.839" y="352.5" style="fill:#D4C7E5;" width="32.96" height="1.361"/>
					<rect x="308.839" y="355.593" style="fill:#D4C7E5;" width="40.461" height="1.361"/>
					<rect x="308.839" y="358.686" style="fill:#D4C7E5;" width="35.744" height="1.361"/>
				</g>
				<g>
					<rect x="277.286" y="376.244" style="fill:#D4C7E5;" width="40.461" height="1.361"/>
					<rect x="277.286" y="379.337" style="fill:#D4C7E5;" width="38.853" height="1.361"/>
					<rect x="277.286" y="382.43" style="fill:#D4C7E5;" width="40.461" height="1.361"/>
					<rect x="277.286" y="385.524" style="fill:#D4C7E5;" width="35.744" height="1.361"/>
				</g>
				<rect x="329.069" y="374.401" style="fill:#AC6EF4;" width="14.044" height="15.591"/>
				<rect x="348.62" y="374.401" style="fill:#D4C7E5;" width="14.044" height="15.591"/>
			</g>
			<g>
				<path style="fill:#03235D;" d="M164.98,268.077l-27.944,37.322c-0.966,1.291-2.796,1.554-4.087,0.587l-69.437-51.99
					c-1.291-0.966-1.554-2.796-0.587-4.087l27.944-37.322c0.966-1.291,2.796-1.554,4.087-0.587l69.437,51.99
					C165.684,264.956,165.947,266.786,164.98,268.077z"/>
				
					<rect x="87.896" y="218.401" transform="matrix(0.5993 -0.8005 0.8005 0.5993 -161.3503 193.236)" style="fill:#FFFFFF;" width="48.937" height="78.806"/>
				<path style="fill:#525E8F;" d="M148.844,282.089c1.072,0.803,1.29,2.322,0.488,3.394c-0.803,1.072-2.322,1.29-3.394,0.488
					c-1.072-0.803-1.29-2.322-0.488-3.394C146.252,281.504,147.772,281.286,148.844,282.089z"/>
				<path style="fill:#E7DFF9;" d="M119.219,245.727l-0.585,0.781c-4.842-3.625-11.706-2.639-15.332,2.203
					c-2.374,3.171-2.77,7.21-1.401,10.638c-0.14,0.15-0.274,0.308-0.4,0.476c-1.898,2.535-1.381,6.128,1.153,8.025
					c0.001,0.001,0.002,0.002,0.003,0.002c-1.753,2.417-1.25,5.801,1.148,7.596l0,0c2.421,1.813,5.853,1.319,7.666-1.102
					l16.514-22.055c1.813-2.421,1.319-5.853-1.102-7.666l0,0C124.464,242.813,121.031,243.306,119.219,245.727z"/>
				<polygon style="fill:#D4C7E5;" points="119.729,263.319 110.57,263.756 117.57,254.407 				"/>
				
					<rect x="110.711" y="255.409" transform="matrix(0.5994 -0.8005 0.8005 0.5994 -161.4608 193.8482)" style="fill:#D4C7E5;" width="4.424" height="5.627"/>
			</g>
			<g>
				<path style="fill:#D4C7E5;" d="M131.012,193.754c11.915-15.649,12.804-51.216,12.804-51.216s-9.425,2.668-18.495,1.601
					s-17.961,1.6-17.961,1.6s1.245,33.255-4.09,50.149c0,0,4.935-2.49,10.803-2.757
					C119.941,192.865,131.012,193.754,131.012,193.754z"/>
				<g>
					<path style="fill:#AC6EF4;" d="M137.383,151.027c-0.011,0.349-0.034,0.732-0.045,1.159c-3.872,0.822-10.953,1.351-15.951,0.822
						c-4.57-0.473-8.645,0.867-10.615,1.689c0-0.405-0.011-0.81-0.022-1.216c2.195-0.867,6.202-2.071,10.75-1.587
						C126.521,152.422,133.691,151.871,137.383,151.027z"/>
				</g>
				<g>
					<path style="fill:#AC6EF4;" d="M137.023,156.981c-0.023,0.372-0.056,0.765-0.09,1.159c-3.906,0.844-10.188,1.272-16.176,0.383
						c-3.985-0.585-8.172,0.979-10.108,1.857c0.022-0.417,0.034-0.833,0.056-1.25c2.206-0.957,6.236-2.308,10.221-1.722
						C126.948,158.31,133.264,157.837,137.023,156.981z"/>
				</g>
				<g>
					<path style="fill:#AC6EF4;" d="M136.472,162.734c-0.034,0.394-0.09,0.788-0.135,1.182c-3.062,0.552-6.146,0.36-9.377,0.146
						c-2.071-0.135-4.199-0.281-6.405-0.225c-4.277,0.113-8.566,1.7-10.311,2.42c0.034-0.417,0.068-0.833,0.113-1.261
						c2.049-0.822,6.056-2.184,10.165-2.285c2.263-0.056,4.424,0.09,6.506,0.225C130.303,163.15,133.432,163.353,136.472,162.734z"
						/>
				</g>
				<g>
					<path style="fill:#AC6EF4;" d="M135.639,168.643c-0.068,0.383-0.135,0.754-0.203,1.126c-1.193-0.022-2.589-0.079-4.143-0.135
						c-3.186-0.113-7.159-0.259-11.381-0.203c-3.974,0.056-8.184,1.497-10.266,2.296c0.056-0.405,0.113-0.833,0.158-1.272
						c2.285-0.855,6.247-2.094,10.097-2.15c4.244-0.056,8.229,0.09,11.437,0.203C132.971,168.576,134.423,168.632,135.639,168.643z"
						/>
				</g>
				<g>
					<path style="fill:#AC6EF4;" d="M134.479,174.092c-0.09,0.383-0.191,0.754-0.293,1.114c-2.938-0.146-9.096-0.416-13.576-0.326
						c-4.233,0.079-9.478,1.812-11.786,2.645c0.056-0.383,0.124-0.811,0.191-1.272c2.578-0.912,7.452-2.431,11.572-2.499
						C125.226,173.664,131.631,173.945,134.479,174.092z"/>
				</g>
			</g>
			<g>
				<path style="fill:#AC6EF4;" d="M237.192,110.011c-10.31-10.674-17.112-6.581-17.112-6.581c0.59-2.578,1.348-5.077,2.228-7.484
					c6.899-8.305,14.89-13.787,22.54-17.408C236.031,93.04,237.165,109.585,237.192,110.011z"/>
				<path style="fill:#D4C7E5;" d="M275.136,71.525c0,0-14.397-0.518-30.281,7.002l-0.011,0.011
					c-7.643,3.625-15.636,9.107-22.536,17.403c2.296-6.236,5.46-11.853,8.814-16.716c0.225-0.338,0.462-0.675,0.698-1.002
					c1.193-1.688,2.398-3.264,3.591-4.739c0.27-0.326,0.54-0.653,0.799-0.968c1.351-1.621,2.668-3.096,3.917-4.435h0.011
					c0.315-0.338,0.619-0.664,0.934-0.991c1.204-1.249,2.341-2.364,3.343-3.321c0.372-0.349,0.732-0.675,1.069-0.979
					c2.251-2.06,3.692-3.163,3.692-3.163C261.448,59.683,275.136,71.525,275.136,71.525z"/>
				<g>
					<path style="fill:#AC6EF4;" d="M259.951,68.677c-0.439,0.067-0.934,0.146-1.452,0.236c-4.244-3.411-11.516-4.762-14.082-5.144
						c0.372-0.349,0.732-0.675,1.069-0.979C248.863,63.364,255.966,64.951,259.951,68.677z"/>
				</g>
				<g>
					<path style="fill:#AC6EF4;" d="M249.764,71.255c-0.394,0.124-0.788,0.27-1.193,0.428c-2.611-2.398-6.45-3.287-8.431-3.602
						c0.315-0.338,0.619-0.664,0.934-0.991C243.426,67.529,247.208,68.621,249.764,71.255z"/>
				</g>
				<g>
					<path style="fill:#AC6EF4;" d="M241.512,74.778c-0.372,0.191-0.743,0.383-1.126,0.597c-1.644-1.036-3.636-1.598-4.975-1.891
						c0.27-0.326,0.54-0.653,0.799-0.968C237.753,72.876,239.835,73.563,241.512,74.778z"/>
				</g>
				<g>
					<path style="fill:#AC6EF4;" d="M234.207,79.101c-0.349,0.236-0.709,0.484-1.058,0.732c-0.653-0.27-1.441-0.484-2.026-0.608
						c0.225-0.338,0.462-0.675,0.698-1.002C232.541,78.403,233.475,78.685,234.207,79.101z"/>
				</g>
			</g>
			<g>
				<path style="fill:#AC6EF4;" d="M205.144,86.48c0,0-5.606,9.377-13.621,18.99c-8.251,9.883-19.069,20.026-28.975,20.42
					c0,0-5.435,0-13.947-1.295c0,0,13.835-11.853,22.885-41.954C171.486,82.641,191.917,91.185,205.144,86.48z"/>
				<path style="fill:#D4C7E5;" d="M191.523,105.47c-8.251,9.883-19.069,20.026-28.975,20.42c0,0,3.37,0,0.54-5.583
					C163.089,120.306,180.514,116.198,191.523,105.47z"/>
			</g>
			<g>
				<path style="fill:#AC6EF4;" d="M140.202,356.397l-23.383-4.97c-2.365-0.503-3.874-2.827-3.372-5.192l4.97-23.383
					c0.503-2.365,2.827-3.874,5.192-3.372l23.383,4.97c2.365,0.503,3.874,2.827,3.372,5.192l-4.97,23.382
					C144.891,355.39,142.567,356.9,140.202,356.397z"/>
				<path style="fill:none;stroke:#FFFFFF;stroke-miterlimit:10;" d="M138.477,353.1l-18.741-3.983
					c-2.098-0.446-3.437-2.508-2.992-4.606l3.983-18.741c0.446-2.098,2.508-3.438,4.606-2.992l18.741,3.983
					c2.098,0.446,3.438,2.508,2.992,4.607l-3.983,18.74C142.637,352.207,140.575,353.546,138.477,353.1z"/>
				<path style="fill:#FFFFFF;" d="M129.264,328.237l-2.197,10.336c-0.403-0.462-0.945-0.808-1.59-0.945
					c-1.584-0.337-3.141,0.674-3.477,2.258c-0.337,1.584,0.674,3.141,2.258,3.477c1.584,0.337,3.141-0.674,3.477-2.258l1.808-8.505
					l9.304,6.128l-1.109,5.218c-0.41-0.526-0.99-0.925-1.693-1.074c-1.584-0.337-3.141,0.674-3.477,2.258s0.674,3.141,2.258,3.477
					c1.584,0.337,3.141-0.674,3.477-2.258l2.178-10.246L129.264,328.237z"/>
			</g>
			<g>
				<path style="fill:#AC6EF4;" d="M235.406,360.901l-2.275,10.701c-0.417-0.478-0.978-0.837-1.647-0.979
					c-1.64-0.348-3.251,0.698-3.6,2.338c-0.348,1.64,0.698,3.252,2.338,3.6c1.64,0.349,3.252-0.698,3.6-2.338l1.871-8.805
					l9.632,6.344l-1.148,5.402c-0.424-0.545-1.024-0.957-1.753-1.112c-1.64-0.348-3.252,0.698-3.6,2.338s0.698,3.252,2.338,3.6
					s3.252-0.698,3.6-2.338l2.255-10.607L235.406,360.901z"/>
				<path style="fill:#AC6EF4;" d="M224.547,384.856l7.523-0.01l-1.935-3.433l-8.25-0.222l3.83,10.257
					c-0.61-0.178-1.276-0.183-1.922,0.062c-1.564,0.581-2.375,2.325-1.788,3.899c0.587,1.574,2.335,2.368,3.909,1.782
					c1.574-0.587,2.368-2.335,1.782-3.909L224.547,384.856z"/>
				<path style="fill:#AC6EF4;" d="M240.178,388.053l4.039,1.878l-0.179-2.326l-4.371-2.185l-0.513,6.462
					c-0.283-0.248-0.639-0.417-1.047-0.448c-0.985-0.08-1.856,0.653-1.935,1.645c-0.079,0.992,0.66,1.855,1.651,1.935
					c0.992,0.079,1.855-0.66,1.934-1.651L240.178,388.053z"/>
			</g>
			<g>
				<path style="fill:#D4C7E5;" d="M195.319,385.65l-22.459,8.187c-2.271,0.828-4.784-0.342-5.612-2.614l-8.187-22.459
					c-0.828-2.271,0.342-4.784,2.614-5.612l22.459-8.187c2.271-0.828,4.784,0.342,5.612,2.614l8.187,22.459
					C198.761,382.309,197.59,384.822,195.319,385.65z"/>
				<path style="fill:#AC6EF4;" d="M174.257,371.291l2.996,8.219c0.277,0.76,1.291,0.9,1.764,0.244l4.553-6.315
					c0.416-0.577,0.119-1.393-0.571-1.567l-7.549-1.904C174.666,369.771,173.98,370.531,174.257,371.291z"/>
				<path style="fill:none;stroke:#FFFFFF;stroke-miterlimit:10;" d="M188.494,370.757c2.012,5.521-0.832,11.629-6.353,13.641
					c-5.521,2.012-11.629-0.832-13.641-6.353c-2.012-5.521,0.832-11.628,6.353-13.641
					C180.374,362.391,186.481,365.235,188.494,370.757z"/>
			</g>
		</g>
		<g>
			<g>
				<path style="fill:#EEEAF9;" d="M270.06,194.245c-20.612-10.361-45.065-4.766-59.298,12.14l-11.114-5.587l5.023,14.749
					l5.447,16.009l15.077-4.848l15.854-5.098l-8.581-4.313c10.332-8.921,26.586-10.829,40.906-3.63
					c13.516,6.795,21.55,19.802,21.567,32.695c0,0-0.004,0.008,0,0.02c0.02,0.285,0.213,2.853,0.844,2.285
					c0.004-0.008,0.004-0.008,0.004-0.008l0.004-0.008C300.635,227.269,290.541,204.541,270.06,194.245z"/>
				<path style="fill:#EEEAF9;" d="M230.359,298.559c20.612,10.361,45.065,4.765,59.298-12.14l11.113,5.587l-5.023-14.749
					l-5.447-16.009l-15.078,4.848l-15.854,5.098l8.581,4.313c-10.332,8.921-26.586,10.829-40.906,3.63
					c-13.516-6.794-21.55-19.802-21.567-32.695c0,0,0.004-0.008,0-0.02c-0.02-0.285-0.213-2.853-0.844-2.285
					c-0.004,0.008-0.004,0.008-0.004,0.008l-0.004,0.008C199.784,265.535,209.877,288.263,230.359,298.559z"/>
			</g>
		</g>
	</g>
</g>
<g id="DESIGNED_BY_FREEPIK">
	<g id="XMLID_1_" style="display:none;">
		<g id="XMLID_319_" style="display:inline;">
			<g id="XMLID_338_">
				<path id="XMLID_346_" style="fill:#A5B7C6;" d="M260.104,465.465c-0.432,0.443-0.803,0.931-1.108,1.453l-0.465-0.241
					c-0.067-0.298-0.349-0.503-0.659-0.466c-0.331,0.039-0.568,0.339-0.529,0.67s0.339,0.568,0.67,0.529
					c0.065-0.008,0.127-0.026,0.184-0.052l0.451,0.234c-0.251,0.554-0.433,1.139-0.539,1.744l0.746,0.132
					c0.23-1.306,0.85-2.507,1.792-3.473L260.104,465.465z"/>
				<path id="XMLID_345_" style="fill:#A5B7C6;" d="M265.592,463.163c-0.171,0-0.341,0.006-0.51,0.017l-0.074-0.626
					c0.188-0.149,0.296-0.389,0.266-0.645c-0.046-0.393-0.402-0.674-0.795-0.628s-0.674,0.402-0.628,0.795
					c0.03,0.254,0.189,0.461,0.405,0.564l0.073,0.624c-0.714,0.116-1.403,0.332-2.06,0.646l0.327,0.684
					c0.934-0.447,1.942-0.673,2.995-0.673c0.496,0,0.993,0.053,1.475,0.158l0.161-0.741
					C266.693,463.222,266.142,463.163,265.592,463.163z"/>
				<path id="XMLID_344_" style="fill:#A5B7C6;" d="M272.194,465.711c0.331-0.04,0.566-0.341,0.525-0.672
					c-0.04-0.331-0.341-0.566-0.672-0.526c-0.309,0.038-0.535,0.304-0.53,0.609l-0.416,0.363c-0.418-0.43-0.89-0.813-1.408-1.139
					l-0.404,0.641c1.134,0.715,2.021,1.726,2.563,2.925l0.691-0.313c-0.251-0.554-0.568-1.072-0.942-1.545l0.402-0.351
					C272.065,465.716,272.129,465.719,272.194,465.711z"/>
				<path id="XMLID_343_" style="fill:#A5B7C6;" d="M265.044,473.372c-0.386,0.023-0.775,0.035-1.157,0.035
					c-0.88,0-1.733-0.061-2.478-0.179c-0.39-0.062-0.846-0.155-1.27-0.292c1.046,1.861,3.069,3.125,5.388,3.125
					c2.855,0,5.262-1.916,5.95-4.504c-0.682,0.449-1.505,0.825-2.459,1.123C267.839,473.047,266.464,473.286,265.044,473.372z"/>
				<path id="XMLID_339_" style="fill:#A5B7C6;" d="M265.592,464.68c-3.352,0-6.08,2.666-6.08,5.943
					c0,0.426,0.046,0.849,0.137,1.261c0.674,0.483,2.706,0.89,5.348,0.731c2.879-0.173,5.297-0.957,6.672-2.159
					c-0.005-0.195-0.021-0.39-0.045-0.582C271.244,466.913,268.65,464.68,265.592,464.68z M263.432,471.194
					c-1.02,0-1.85-0.83-1.85-1.85c0-1.02,0.83-1.85,1.85-1.85c1.02,0,1.85,0.83,1.85,1.85
					C265.282,470.365,264.452,471.194,263.432,471.194z M268.17,470.286c-0.75,0-1.36-0.61-1.36-1.36s0.61-1.361,1.36-1.361
					c0.75,0,1.361,0.61,1.361,1.361S268.92,470.286,268.17,470.286z"/>
			</g>
			<path id="XMLID_336_" style="fill:#A5B7C6;" d="M281.595,466.547c-0.295-0.116-0.806-0.309-1.382-0.237
				c-0.551,0.069-0.844,0.341-0.844,1.007v0.866h2.228v1.717h-2.228v5.455h-1.932v-5.455h-1.34v-1.717h1.34v-0.888
				c0-1.68,0.896-2.783,2.568-2.783c0.642,0,1.157,0.122,1.59,0.308L281.595,466.547z"/>
			<path id="XMLID_334_" style="fill:#A5B7C6;" d="M286.298,469.879c-0.177-0.03-0.358-0.046-0.526-0.046
				c-0.896,0-1.51,0.548-1.51,1.614v3.908h-1.932v-7.172h1.873v0.785c0.451-0.673,1.14-0.977,2.021-0.977
				c0.414,0,0.848,0.128,1.094,0.337L286.298,469.879z"/>
			<path id="XMLID_331_" style="fill:#A5B7C6;" d="M293.965,471.757c0,0.222-0.015,0.489-0.037,0.651h-5.085
				c0.207,1.036,0.933,1.488,1.843,1.488c0.622,0,1.295-0.252,1.813-0.688l1.132,1.243c-0.814,0.748-1.85,1.088-3.057,1.088
				c-2.198,0-3.723-1.495-3.723-3.753c0-2.258,1.48-3.797,3.627-3.797C292.544,467.99,293.958,469.522,293.965,471.757z
				 M288.851,471.091h3.175c-0.177-0.918-0.733-1.436-1.562-1.436C289.554,469.655,289.021,470.203,288.851,471.091z"/>
			<path id="XMLID_328_" style="fill:#A5B7C6;" d="M301.618,471.757c0,0.222-0.015,0.489-0.037,0.651h-5.085
				c0.207,1.036,0.932,1.488,1.843,1.488c0.622,0,1.295-0.252,1.813-0.688l1.132,1.243c-0.814,0.748-1.85,1.088-3.057,1.088
				c-2.198,0-3.723-1.495-3.723-3.753c0-2.258,1.48-3.797,3.627-3.797C300.197,467.99,301.611,469.522,301.618,471.757z
				 M296.504,471.091h3.175c-0.178-0.918-0.733-1.436-1.562-1.436C297.207,469.655,296.674,470.203,296.504,471.091z"/>
			<path id="XMLID_325_" style="fill:#A5B7C6;" d="M309.964,471.764c0,2.154-1.495,3.775-3.471,3.775
				c-0.962,0-1.643-0.378-2.109-0.933v3.708h-1.924v-10.133h1.887v0.792c0.466-0.585,1.155-0.984,2.139-0.984
				C308.469,467.99,309.964,469.61,309.964,471.764z M304.287,471.764c0,1.132,0.747,1.976,1.843,1.976
				c1.14,0,1.85-0.881,1.85-1.976c0-1.095-0.71-1.976-1.85-1.976C305.035,469.788,304.287,470.632,304.287,471.764z"/>
			<path id="XMLID_322_" style="fill:#A5B7C6;" d="M313.068,465.836c0,0.696-0.54,1.229-1.236,1.229
				c-0.696,0-1.229-0.533-1.229-1.229c0-0.696,0.533-1.243,1.229-1.243C312.527,464.592,313.068,465.14,313.068,465.836z
				 M312.809,475.354h-1.932v-7.172h1.932V475.354z"/>
			<path id="XMLID_320_" style="fill:#A5B7C6;" d="M316.032,470.736l2.702-2.554h2.368l-3.479,3.375l3.501,3.797h-2.376
				l-2.716-2.901v2.901H314.1v-10.658h1.932V470.736z"/>
		</g>
		<g id="XMLID_2_" style="display:inline;">
			<path id="XMLID_37_" style="fill:#A5B7C6;" d="M184.412,475.289v-1.055c-0.527,0.718-1.391,1.23-2.387,1.23
				c-1.846,0-3.149-1.406-3.149-3.706c0-2.256,1.289-3.721,3.149-3.721c0.952,0,1.816,0.469,2.387,1.245v-3.765h1.099v9.77H184.412z
				 M184.412,473.37v-3.208c-0.395-0.615-1.245-1.143-2.124-1.143c-1.421,0-2.27,1.172-2.27,2.739c0,1.567,0.85,2.724,2.27,2.724
				C183.168,474.483,184.017,473.986,184.412,473.37z"/>
			<path id="XMLID_34_" style="fill:#A5B7C6;" d="M186.932,471.744c0-2.051,1.465-3.706,3.486-3.706c2.139,0,3.398,1.67,3.398,3.794
				v0.279h-5.727c0.088,1.333,1.025,2.446,2.549,2.446c0.805,0,1.626-0.322,2.182-0.894l0.527,0.718
				c-0.703,0.703-1.655,1.084-2.812,1.084C188.44,475.465,186.932,473.956,186.932,471.744z M190.403,468.947
				c-1.509,0-2.256,1.274-2.314,2.358h4.643C192.718,470.25,192.015,468.947,190.403,468.947z"/>
			<path id="XMLID_32_" style="fill:#A5B7C6;" d="M194.607,474.351l0.571-0.791c0.469,0.542,1.362,1.011,2.329,1.011
				c1.084,0,1.67-0.513,1.67-1.216c0-1.714-4.38-0.659-4.38-3.281c0-1.098,0.952-2.036,2.636-2.036c1.201,0,2.051,0.454,2.622,1.026
				l-0.513,0.762c-0.424-0.513-1.201-0.894-2.109-0.894c-0.967,0-1.567,0.483-1.567,1.113c0,1.552,4.38,0.527,4.38,3.281
				c0,1.187-0.952,2.138-2.783,2.138C196.306,475.465,195.325,475.113,194.607,474.351z"/>
			<path id="XMLID_9_" style="fill:#A5B7C6;" d="M201.477,466.471c0-0.41,0.337-0.747,0.732-0.747c0.41,0,0.747,0.337,0.747,0.747
				c0,0.41-0.337,0.732-0.747,0.732C201.814,467.203,201.477,466.881,201.477,466.471z M201.667,475.289v-7.075h1.099v7.075H201.667
				z"/>
			<path id="XMLID_14_" style="fill:#A5B7C6;" d="M204.582,477.105l0.556-0.82c0.586,0.703,1.289,0.967,2.3,0.967
				c1.172,0,2.27-0.571,2.27-2.124v-1.011c-0.513,0.718-1.377,1.26-2.373,1.26c-1.845,0-3.149-1.377-3.149-3.662
				c0-2.27,1.289-3.677,3.149-3.677c0.952,0,1.802,0.469,2.373,1.245v-1.069h1.098v6.87c0,2.344-1.641,3.076-3.369,3.076
				C206.237,478.16,205.417,477.926,204.582,477.105z M209.709,473.253v-3.091c-0.381-0.615-1.23-1.143-2.109-1.143
				c-1.421,0-2.27,1.128-2.27,2.695c0,1.553,0.849,2.695,2.27,2.695C208.478,474.41,209.328,473.868,209.709,473.253z"/>
			<path id="XMLID_17_" style="fill:#A5B7C6;" d="M217.413,475.289v-4.629c0-1.245-0.63-1.641-1.582-1.641
				c-0.865,0-1.685,0.527-2.095,1.099v5.17h-1.099v-7.075h1.099v1.025c0.498-0.586,1.464-1.201,2.519-1.201
				c1.48,0,2.256,0.747,2.256,2.285v4.966H217.413z"/>
			<path id="XMLID_19_" style="fill:#A5B7C6;" d="M219.932,471.744c0-2.051,1.465-3.706,3.486-3.706c2.139,0,3.398,1.67,3.398,3.794
				v0.279h-5.727c0.088,1.333,1.025,2.446,2.549,2.446c0.806,0,1.626-0.322,2.183-0.894l0.527,0.718
				c-0.703,0.703-1.655,1.084-2.812,1.084C221.441,475.465,219.932,473.956,219.932,471.744z M223.404,468.947
				c-1.509,0-2.256,1.274-2.314,2.358h4.643C225.718,470.25,225.015,468.947,223.404,468.947z"/>
			<path id="XMLID_22_" style="fill:#A5B7C6;" d="M233.35,475.289v-1.055c-0.527,0.718-1.392,1.23-2.388,1.23
				c-1.846,0-3.149-1.406-3.149-3.706c0-2.256,1.289-3.721,3.149-3.721c0.952,0,1.817,0.469,2.388,1.245v-3.765h1.098v9.77H233.35z
				 M233.35,473.37v-3.208c-0.396-0.615-1.245-1.143-2.124-1.143c-1.421,0-2.27,1.172-2.27,2.739c0,1.567,0.849,2.724,2.27,2.724
				C232.105,474.483,232.954,473.986,233.35,473.37z"/>
			<path id="XMLID_25_" style="fill:#A5B7C6;" d="M239.692,475.289v-9.77h1.098v3.765c0.572-0.776,1.421-1.245,2.388-1.245
				c1.845,0,3.149,1.465,3.149,3.721c0,2.299-1.304,3.706-3.149,3.706c-0.996,0-1.86-0.513-2.388-1.23v1.055H239.692z
				 M242.9,474.483c1.436,0,2.285-1.157,2.285-2.724c0-1.568-0.85-2.739-2.285-2.739c-0.864,0-1.728,0.527-2.109,1.143v3.208
				C241.171,473.986,242.036,474.483,242.9,474.483z"/>
			<path id="XMLID_3_" style="fill:#A5B7C6;" d="M247.528,477.061c0.161,0.073,0.425,0.117,0.601,0.117
				c0.483,0,0.805-0.161,1.055-0.747l0.469-1.069l-2.959-7.148h1.187l2.358,5.8l2.344-5.8h1.201l-3.545,8.51
				c-0.425,1.025-1.143,1.421-2.08,1.435c-0.234,0-0.601-0.044-0.805-0.103L247.528,477.061z"/>
		</g>
	</g>
	<g id="XMLID_43_">
		<g id="XMLID_77_">
			<g id="XMLID_97_">
				<path id="XMLID_106_" style="fill:#1D262D;" d="M260.104,465.465c-0.432,0.443-0.803,0.931-1.108,1.453l-0.465-0.241
					c-0.067-0.298-0.349-0.503-0.659-0.466c-0.331,0.039-0.568,0.339-0.529,0.67s0.339,0.568,0.67,0.529
					c0.065-0.008,0.127-0.026,0.184-0.052l0.451,0.234c-0.251,0.554-0.433,1.139-0.539,1.744l0.746,0.132
					c0.23-1.306,0.85-2.507,1.792-3.473L260.104,465.465z"/>
				<path id="XMLID_105_" style="fill:#1D262D;" d="M265.592,463.163c-0.171,0-0.341,0.006-0.51,0.017l-0.074-0.626
					c0.188-0.149,0.296-0.389,0.266-0.645c-0.046-0.393-0.402-0.674-0.795-0.628s-0.674,0.402-0.628,0.795
					c0.03,0.254,0.189,0.461,0.405,0.564l0.073,0.624c-0.714,0.116-1.403,0.332-2.06,0.646l0.327,0.684
					c0.934-0.447,1.942-0.673,2.995-0.673c0.496,0,0.993,0.053,1.475,0.158l0.161-0.741
					C266.693,463.222,266.142,463.163,265.592,463.163z"/>
				<path id="XMLID_104_" style="fill:#1D262D;" d="M272.194,465.711c0.331-0.04,0.566-0.341,0.525-0.672
					c-0.04-0.331-0.341-0.566-0.672-0.526c-0.309,0.038-0.535,0.304-0.53,0.609l-0.416,0.363c-0.418-0.43-0.89-0.813-1.408-1.139
					l-0.404,0.641c1.134,0.715,2.021,1.726,2.563,2.925l0.691-0.313c-0.251-0.554-0.568-1.072-0.942-1.545l0.402-0.351
					C272.065,465.716,272.129,465.719,272.194,465.711z"/>
				<path id="XMLID_103_" style="fill:#1D262D;" d="M265.044,473.372c-0.386,0.023-0.775,0.035-1.157,0.035
					c-0.88,0-1.733-0.061-2.478-0.179c-0.39-0.062-0.846-0.155-1.27-0.292c1.046,1.861,3.069,3.125,5.388,3.125
					c2.855,0,5.262-1.916,5.95-4.504c-0.682,0.449-1.505,0.825-2.459,1.123C267.839,473.047,266.464,473.286,265.044,473.372z"/>
				<path id="XMLID_98_" style="fill:#1D262D;" d="M265.592,464.68c-3.352,0-6.08,2.666-6.08,5.943c0,0.426,0.046,0.849,0.137,1.261
					c0.674,0.483,2.706,0.89,5.348,0.731c2.879-0.173,5.297-0.957,6.672-2.159c-0.005-0.195-0.021-0.39-0.045-0.582
					C271.244,466.913,268.65,464.68,265.592,464.68z M263.432,471.194c-1.02,0-1.85-0.83-1.85-1.85c0-1.02,0.83-1.85,1.85-1.85
					c1.02,0,1.85,0.83,1.85,1.85C265.282,470.365,264.452,471.194,263.432,471.194z M268.17,470.286c-0.75,0-1.36-0.61-1.36-1.36
					s0.61-1.361,1.36-1.361c0.75,0,1.361,0.61,1.361,1.361S268.92,470.286,268.17,470.286z"/>
			</g>
			<path id="XMLID_95_" style="fill:#1D262D;" d="M281.595,466.547c-0.295-0.116-0.806-0.309-1.382-0.237
				c-0.551,0.069-0.844,0.341-0.844,1.007v0.866h2.228v1.717h-2.228v5.455h-1.932v-5.455h-1.34v-1.717h1.34v-0.888
				c0-1.68,0.896-2.783,2.568-2.783c0.642,0,1.157,0.122,1.59,0.308L281.595,466.547z"/>
			<path id="XMLID_93_" style="fill:#1D262D;" d="M286.298,469.879c-0.177-0.03-0.358-0.046-0.526-0.046
				c-0.896,0-1.51,0.548-1.51,1.614v3.908h-1.932v-7.172h1.873v0.785c0.451-0.673,1.14-0.977,2.021-0.977
				c0.414,0,0.848,0.128,1.094,0.337L286.298,469.879z"/>
			<path id="XMLID_90_" style="fill:#1D262D;" d="M293.965,471.757c0,0.222-0.015,0.489-0.037,0.651h-5.085
				c0.207,1.036,0.933,1.488,1.843,1.488c0.622,0,1.295-0.252,1.813-0.688l1.132,1.243c-0.814,0.748-1.85,1.088-3.057,1.088
				c-2.198,0-3.723-1.495-3.723-3.753c0-2.258,1.48-3.797,3.627-3.797C292.544,467.99,293.958,469.522,293.965,471.757z
				 M288.851,471.091h3.175c-0.177-0.918-0.733-1.436-1.562-1.436C289.554,469.655,289.021,470.203,288.851,471.091z"/>
			<path id="XMLID_87_" style="fill:#1D262D;" d="M301.618,471.757c0,0.222-0.015,0.489-0.037,0.651h-5.085
				c0.207,1.036,0.932,1.488,1.843,1.488c0.622,0,1.295-0.252,1.813-0.688l1.132,1.243c-0.814,0.748-1.85,1.088-3.057,1.088
				c-2.198,0-3.723-1.495-3.723-3.753c0-2.258,1.48-3.797,3.627-3.797C300.197,467.99,301.611,469.522,301.618,471.757z
				 M296.504,471.091h3.175c-0.178-0.918-0.733-1.436-1.562-1.436C297.207,469.655,296.674,470.203,296.504,471.091z"/>
			<path id="XMLID_84_" style="fill:#1D262D;" d="M309.964,471.764c0,2.154-1.495,3.775-3.471,3.775
				c-0.962,0-1.643-0.378-2.109-0.933v3.708h-1.924v-10.133h1.887v0.792c0.466-0.585,1.155-0.984,2.139-0.984
				C308.469,467.99,309.964,469.61,309.964,471.764z M304.287,471.764c0,1.132,0.747,1.976,1.843,1.976
				c1.14,0,1.85-0.881,1.85-1.976c0-1.095-0.71-1.976-1.85-1.976C305.035,469.788,304.287,470.632,304.287,471.764z"/>
			<path id="XMLID_81_" style="fill:#1D262D;" d="M313.068,465.836c0,0.696-0.54,1.229-1.236,1.229
				c-0.696,0-1.229-0.533-1.229-1.229c0-0.696,0.533-1.243,1.229-1.243C312.527,464.592,313.068,465.14,313.068,465.836z
				 M312.809,475.354h-1.932v-7.172h1.932V475.354z"/>
			<path id="XMLID_78_" style="fill:#1D262D;" d="M316.032,470.736l2.702-2.554h2.368l-3.479,3.375l3.501,3.797h-2.376l-2.716-2.901
				v2.901H314.1v-10.658h1.932V470.736z"/>
		</g>
		<g id="XMLID_44_">
			<path id="XMLID_74_" style="fill:#1D262D;" d="M184.412,475.289v-1.055c-0.527,0.718-1.391,1.23-2.387,1.23
				c-1.846,0-3.149-1.406-3.149-3.706c0-2.256,1.289-3.721,3.149-3.721c0.952,0,1.816,0.469,2.387,1.245v-3.765h1.099v9.77H184.412z
				 M184.412,473.37v-3.208c-0.395-0.615-1.245-1.143-2.124-1.143c-1.421,0-2.27,1.172-2.27,2.739c0,1.567,0.85,2.724,2.27,2.724
				C183.168,474.483,184.017,473.986,184.412,473.37z"/>
			<path id="XMLID_69_" style="fill:#1D262D;" d="M186.932,471.744c0-2.051,1.465-3.706,3.486-3.706c2.139,0,3.398,1.67,3.398,3.794
				v0.279h-5.727c0.088,1.333,1.025,2.446,2.549,2.446c0.805,0,1.626-0.322,2.182-0.894l0.527,0.718
				c-0.703,0.703-1.655,1.084-2.812,1.084C188.44,475.465,186.932,473.956,186.932,471.744z M190.403,468.947
				c-1.509,0-2.256,1.274-2.314,2.358h4.643C192.718,470.25,192.015,468.947,190.403,468.947z"/>
			<path id="XMLID_67_" style="fill:#1D262D;" d="M194.607,474.351l0.571-0.791c0.469,0.542,1.362,1.011,2.329,1.011
				c1.084,0,1.67-0.513,1.67-1.216c0-1.714-4.38-0.659-4.38-3.281c0-1.098,0.952-2.036,2.636-2.036c1.201,0,2.051,0.454,2.622,1.026
				l-0.513,0.762c-0.424-0.513-1.201-0.894-2.109-0.894c-0.967,0-1.567,0.483-1.567,1.113c0,1.552,4.38,0.527,4.38,3.281
				c0,1.187-0.952,2.138-2.783,2.138C196.306,475.465,195.325,475.113,194.607,474.351z"/>
			<path id="XMLID_64_" style="fill:#1D262D;" d="M201.477,466.471c0-0.41,0.337-0.747,0.732-0.747c0.41,0,0.747,0.337,0.747,0.747
				c0,0.41-0.337,0.732-0.747,0.732C201.814,467.203,201.477,466.881,201.477,466.471z M201.667,475.289v-7.075h1.099v7.075H201.667
				z"/>
			<path id="XMLID_61_" style="fill:#1D262D;" d="M204.582,477.105l0.556-0.82c0.586,0.703,1.289,0.967,2.3,0.967
				c1.172,0,2.27-0.571,2.27-2.124v-1.011c-0.513,0.718-1.377,1.26-2.373,1.26c-1.845,0-3.149-1.377-3.149-3.662
				c0-2.27,1.289-3.677,3.149-3.677c0.952,0,1.802,0.469,2.373,1.245v-1.069h1.098v6.87c0,2.344-1.641,3.076-3.369,3.076
				C206.237,478.16,205.417,477.926,204.582,477.105z M209.709,473.253v-3.091c-0.381-0.615-1.23-1.143-2.109-1.143
				c-1.421,0-2.27,1.128-2.27,2.695c0,1.553,0.849,2.695,2.27,2.695C208.478,474.41,209.328,473.868,209.709,473.253z"/>
			<path id="XMLID_59_" style="fill:#1D262D;" d="M217.413,475.289v-4.629c0-1.245-0.63-1.641-1.582-1.641
				c-0.865,0-1.685,0.527-2.095,1.099v5.17h-1.099v-7.075h1.099v1.025c0.498-0.586,1.464-1.201,2.519-1.201
				c1.48,0,2.256,0.747,2.256,2.285v4.966H217.413z"/>
			<path id="XMLID_56_" style="fill:#1D262D;" d="M219.932,471.744c0-2.051,1.465-3.706,3.486-3.706c2.139,0,3.398,1.67,3.398,3.794
				v0.279h-5.727c0.088,1.333,1.025,2.446,2.549,2.446c0.806,0,1.626-0.322,2.183-0.894l0.527,0.718
				c-0.703,0.703-1.655,1.084-2.812,1.084C221.441,475.465,219.932,473.956,219.932,471.744z M223.404,468.947
				c-1.509,0-2.256,1.274-2.314,2.358h4.643C225.718,470.25,225.015,468.947,223.404,468.947z"/>
			<path id="XMLID_53_" style="fill:#1D262D;" d="M233.35,475.289v-1.055c-0.527,0.718-1.392,1.23-2.388,1.23
				c-1.846,0-3.149-1.406-3.149-3.706c0-2.256,1.289-3.721,3.149-3.721c0.952,0,1.817,0.469,2.388,1.245v-3.765h1.098v9.77H233.35z
				 M233.35,473.37v-3.208c-0.396-0.615-1.245-1.143-2.124-1.143c-1.421,0-2.27,1.172-2.27,2.739c0,1.567,0.849,2.724,2.27,2.724
				C232.105,474.483,232.954,473.986,233.35,473.37z"/>
			<path id="XMLID_49_" style="fill:#1D262D;" d="M239.692,475.289v-9.77h1.098v3.765c0.572-0.776,1.421-1.245,2.388-1.245
				c1.845,0,3.149,1.465,3.149,3.721c0,2.299-1.304,3.706-3.149,3.706c-0.996,0-1.86-0.513-2.388-1.23v1.055H239.692z
				 M242.9,474.483c1.436,0,2.285-1.157,2.285-2.724c0-1.568-0.85-2.739-2.285-2.739c-0.864,0-1.728,0.527-2.109,1.143v3.208
				C241.171,473.986,242.036,474.483,242.9,474.483z"/>
			<path id="XMLID_47_" style="fill:#1D262D;" d="M247.528,477.061c0.161,0.073,0.425,0.117,0.601,0.117
				c0.483,0,0.805-0.161,1.055-0.747l0.469-1.069l-2.959-7.148h1.187l2.358,5.8l2.344-5.8h1.201l-3.545,8.51
				c-0.425,1.025-1.143,1.421-2.08,1.435c-0.234,0-0.601-0.044-0.805-0.103L247.528,477.061z"/>
		</g>
	</g>
	<g id="XMLID_107_" style="display:none;">
		<g id="XMLID_136_" style="display:inline;">
			<g id="XMLID_155_">
				<path id="XMLID_163_" style="fill:#F9FBFC;" d="M260.104,465.465c-0.432,0.443-0.803,0.931-1.108,1.453l-0.465-0.241
					c-0.067-0.298-0.349-0.503-0.659-0.466c-0.331,0.039-0.568,0.339-0.529,0.67s0.339,0.568,0.67,0.529
					c0.065-0.008,0.127-0.026,0.184-0.052l0.451,0.234c-0.251,0.554-0.433,1.139-0.539,1.744l0.746,0.132
					c0.23-1.306,0.85-2.507,1.792-3.473L260.104,465.465z"/>
				<path id="XMLID_162_" style="fill:#F9FBFC;" d="M265.592,463.163c-0.171,0-0.341,0.006-0.51,0.017l-0.074-0.626
					c0.188-0.149,0.296-0.389,0.266-0.645c-0.046-0.393-0.402-0.674-0.795-0.628s-0.674,0.402-0.628,0.795
					c0.03,0.254,0.189,0.461,0.405,0.564l0.073,0.624c-0.714,0.116-1.403,0.332-2.06,0.646l0.327,0.684
					c0.934-0.447,1.942-0.673,2.995-0.673c0.496,0,0.993,0.053,1.475,0.158l0.161-0.741
					C266.693,463.222,266.142,463.163,265.592,463.163z"/>
				<path id="XMLID_161_" style="fill:#F9FBFC;" d="M272.194,465.711c0.331-0.04,0.566-0.341,0.525-0.672
					c-0.04-0.331-0.341-0.566-0.672-0.526c-0.309,0.038-0.535,0.304-0.53,0.609l-0.416,0.363c-0.418-0.43-0.89-0.813-1.408-1.139
					l-0.404,0.641c1.134,0.715,2.021,1.726,2.563,2.925l0.691-0.313c-0.251-0.554-0.568-1.072-0.942-1.545l0.402-0.351
					C272.065,465.716,272.129,465.719,272.194,465.711z"/>
				<path id="XMLID_160_" style="fill:#F9FBFC;" d="M265.044,473.372c-0.386,0.023-0.775,0.035-1.157,0.035
					c-0.88,0-1.733-0.061-2.478-0.179c-0.39-0.062-0.846-0.155-1.27-0.292c1.046,1.861,3.069,3.125,5.388,3.125
					c2.855,0,5.262-1.916,5.95-4.504c-0.682,0.449-1.505,0.825-2.459,1.123C267.839,473.047,266.464,473.286,265.044,473.372z"/>
				<path id="XMLID_156_" style="fill:#F9FBFC;" d="M265.592,464.68c-3.352,0-6.08,2.666-6.08,5.943
					c0,0.426,0.046,0.849,0.137,1.261c0.674,0.483,2.706,0.89,5.348,0.731c2.879-0.173,5.297-0.957,6.672-2.159
					c-0.005-0.195-0.021-0.39-0.045-0.582C271.244,466.913,268.65,464.68,265.592,464.68z M263.432,471.194
					c-1.02,0-1.85-0.83-1.85-1.85c0-1.02,0.83-1.85,1.85-1.85c1.02,0,1.85,0.83,1.85,1.85
					C265.282,470.365,264.452,471.194,263.432,471.194z M268.17,470.286c-0.75,0-1.36-0.61-1.36-1.36s0.61-1.361,1.36-1.361
					c0.75,0,1.361,0.61,1.361,1.361S268.92,470.286,268.17,470.286z"/>
			</g>
			<path id="XMLID_153_" style="fill:#F9FBFC;" d="M281.595,466.547c-0.295-0.116-0.806-0.309-1.382-0.237
				c-0.551,0.069-0.844,0.341-0.844,1.007v0.866h2.228v1.717h-2.228v5.455h-1.932v-5.455h-1.34v-1.717h1.34v-0.888
				c0-1.68,0.896-2.783,2.568-2.783c0.642,0,1.157,0.122,1.59,0.308L281.595,466.547z"/>
			<path id="XMLID_151_" style="fill:#F9FBFC;" d="M286.298,469.879c-0.177-0.03-0.358-0.046-0.526-0.046
				c-0.896,0-1.51,0.548-1.51,1.614v3.908h-1.932v-7.172h1.873v0.785c0.451-0.673,1.14-0.977,2.021-0.977
				c0.414,0,0.848,0.128,1.094,0.337L286.298,469.879z"/>
			<path id="XMLID_148_" style="fill:#F9FBFC;" d="M293.965,471.757c0,0.222-0.015,0.489-0.037,0.651h-5.085
				c0.207,1.036,0.933,1.488,1.843,1.488c0.622,0,1.295-0.252,1.813-0.688l1.132,1.243c-0.814,0.748-1.85,1.088-3.057,1.088
				c-2.198,0-3.723-1.495-3.723-3.753c0-2.258,1.48-3.797,3.627-3.797C292.544,467.99,293.958,469.522,293.965,471.757z
				 M288.851,471.091h3.175c-0.177-0.918-0.733-1.436-1.562-1.436C289.554,469.655,289.021,470.203,288.851,471.091z"/>
			<path id="XMLID_145_" style="fill:#F9FBFC;" d="M301.618,471.757c0,0.222-0.015,0.489-0.037,0.651h-5.085
				c0.207,1.036,0.932,1.488,1.843,1.488c0.622,0,1.295-0.252,1.813-0.688l1.132,1.243c-0.814,0.748-1.85,1.088-3.057,1.088
				c-2.198,0-3.723-1.495-3.723-3.753c0-2.258,1.48-3.797,3.627-3.797C300.197,467.99,301.611,469.522,301.618,471.757z
				 M296.504,471.091h3.175c-0.178-0.918-0.733-1.436-1.562-1.436C297.207,469.655,296.674,470.203,296.504,471.091z"/>
			<path id="XMLID_142_" style="fill:#F9FBFC;" d="M309.964,471.764c0,2.154-1.495,3.775-3.471,3.775
				c-0.962,0-1.643-0.378-2.109-0.933v3.708h-1.924v-10.133h1.887v0.792c0.466-0.585,1.155-0.984,2.139-0.984
				C308.469,467.99,309.964,469.61,309.964,471.764z M304.287,471.764c0,1.132,0.747,1.976,1.843,1.976
				c1.14,0,1.85-0.881,1.85-1.976c0-1.095-0.71-1.976-1.85-1.976C305.035,469.788,304.287,470.632,304.287,471.764z"/>
			<path id="XMLID_139_" style="fill:#F9FBFC;" d="M313.068,465.836c0,0.696-0.54,1.229-1.236,1.229
				c-0.696,0-1.229-0.533-1.229-1.229c0-0.696,0.533-1.243,1.229-1.243C312.527,464.592,313.068,465.14,313.068,465.836z
				 M312.809,475.354h-1.932v-7.172h1.932V475.354z"/>
			<path id="XMLID_137_" style="fill:#F9FBFC;" d="M316.032,470.736l2.702-2.554h2.368l-3.479,3.375l3.501,3.797h-2.376
				l-2.716-2.901v2.901H314.1v-10.658h1.932V470.736z"/>
		</g>
		<g id="XMLID_108_" style="display:inline;">
			<path id="XMLID_133_" style="fill:#F9FBFC;" d="M184.412,475.289v-1.055c-0.527,0.718-1.391,1.23-2.387,1.23
				c-1.846,0-3.149-1.406-3.149-3.706c0-2.256,1.289-3.721,3.149-3.721c0.952,0,1.816,0.469,2.387,1.245v-3.765h1.099v9.77H184.412z
				 M184.412,473.37v-3.208c-0.395-0.615-1.245-1.143-2.124-1.143c-1.421,0-2.27,1.172-2.27,2.739c0,1.567,0.85,2.724,2.27,2.724
				C183.168,474.483,184.017,473.986,184.412,473.37z"/>
			<path id="XMLID_130_" style="fill:#F9FBFC;" d="M186.932,471.744c0-2.051,1.465-3.706,3.486-3.706
				c2.139,0,3.398,1.67,3.398,3.794v0.279h-5.727c0.088,1.333,1.025,2.446,2.549,2.446c0.805,0,1.626-0.322,2.182-0.894l0.527,0.718
				c-0.703,0.703-1.655,1.084-2.812,1.084C188.44,475.465,186.932,473.956,186.932,471.744z M190.403,468.947
				c-1.509,0-2.256,1.274-2.314,2.358h4.643C192.718,470.25,192.015,468.947,190.403,468.947z"/>
			<path id="XMLID_128_" style="fill:#F9FBFC;" d="M194.607,474.351l0.571-0.791c0.469,0.542,1.362,1.011,2.329,1.011
				c1.084,0,1.67-0.513,1.67-1.216c0-1.714-4.38-0.659-4.38-3.281c0-1.098,0.952-2.036,2.636-2.036c1.201,0,2.051,0.454,2.622,1.026
				l-0.513,0.762c-0.424-0.513-1.201-0.894-2.109-0.894c-0.967,0-1.567,0.483-1.567,1.113c0,1.552,4.38,0.527,4.38,3.281
				c0,1.187-0.952,2.138-2.783,2.138C196.306,475.465,195.325,475.113,194.607,474.351z"/>
			<path id="XMLID_125_" style="fill:#F9FBFC;" d="M201.477,466.471c0-0.41,0.337-0.747,0.732-0.747c0.41,0,0.747,0.337,0.747,0.747
				c0,0.41-0.337,0.732-0.747,0.732C201.814,467.203,201.477,466.881,201.477,466.471z M201.667,475.289v-7.075h1.099v7.075H201.667
				z"/>
			<path id="XMLID_122_" style="fill:#F9FBFC;" d="M204.582,477.105l0.556-0.82c0.586,0.703,1.289,0.967,2.3,0.967
				c1.172,0,2.27-0.571,2.27-2.124v-1.011c-0.513,0.718-1.377,1.26-2.373,1.26c-1.845,0-3.149-1.377-3.149-3.662
				c0-2.27,1.289-3.677,3.149-3.677c0.952,0,1.802,0.469,2.373,1.245v-1.069h1.098v6.87c0,2.344-1.641,3.076-3.369,3.076
				C206.237,478.16,205.417,477.926,204.582,477.105z M209.709,473.253v-3.091c-0.381-0.615-1.23-1.143-2.109-1.143
				c-1.421,0-2.27,1.128-2.27,2.695c0,1.553,0.849,2.695,2.27,2.695C208.478,474.41,209.328,473.868,209.709,473.253z"/>
			<path id="XMLID_120_" style="fill:#F9FBFC;" d="M217.413,475.289v-4.629c0-1.245-0.63-1.641-1.582-1.641
				c-0.865,0-1.685,0.527-2.095,1.099v5.17h-1.099v-7.075h1.099v1.025c0.498-0.586,1.464-1.201,2.519-1.201
				c1.48,0,2.256,0.747,2.256,2.285v4.966H217.413z"/>
			<path id="XMLID_117_" style="fill:#F9FBFC;" d="M219.932,471.744c0-2.051,1.465-3.706,3.486-3.706
				c2.139,0,3.398,1.67,3.398,3.794v0.279h-5.727c0.088,1.333,1.025,2.446,2.549,2.446c0.806,0,1.626-0.322,2.183-0.894l0.527,0.718
				c-0.703,0.703-1.655,1.084-2.812,1.084C221.441,475.465,219.932,473.956,219.932,471.744z M223.404,468.947
				c-1.509,0-2.256,1.274-2.314,2.358h4.643C225.718,470.25,225.015,468.947,223.404,468.947z"/>
			<path id="XMLID_114_" style="fill:#F9FBFC;" d="M233.35,475.289v-1.055c-0.527,0.718-1.392,1.23-2.388,1.23
				c-1.846,0-3.149-1.406-3.149-3.706c0-2.256,1.289-3.721,3.149-3.721c0.952,0,1.817,0.469,2.388,1.245v-3.765h1.098v9.77H233.35z
				 M233.35,473.37v-3.208c-0.396-0.615-1.245-1.143-2.124-1.143c-1.421,0-2.27,1.172-2.27,2.739c0,1.567,0.849,2.724,2.27,2.724
				C232.105,474.483,232.954,473.986,233.35,473.37z"/>
			<path id="XMLID_111_" style="fill:#F9FBFC;" d="M239.692,475.289v-9.77h1.098v3.765c0.572-0.776,1.421-1.245,2.388-1.245
				c1.845,0,3.149,1.465,3.149,3.721c0,2.299-1.304,3.706-3.149,3.706c-0.996,0-1.86-0.513-2.388-1.23v1.055H239.692z
				 M242.9,474.483c1.436,0,2.285-1.157,2.285-2.724c0-1.568-0.85-2.739-2.285-2.739c-0.864,0-1.728,0.527-2.109,1.143v3.208
				C241.171,473.986,242.036,474.483,242.9,474.483z"/>
			<path id="XMLID_109_" style="fill:#F9FBFC;" d="M247.528,477.061c0.161,0.073,0.425,0.117,0.601,0.117
				c0.483,0,0.805-0.161,1.055-0.747l0.469-1.069l-2.959-7.148h1.187l2.358,5.8l2.344-5.8h1.201l-3.545,8.51
				c-0.425,1.025-1.143,1.421-2.08,1.435c-0.234,0-0.601-0.044-0.805-0.103L247.528,477.061z"/>
		</g>
	</g>
</g>
</svg>
