<?xml version="1.0" encoding="UTF-8" standalone="no" ?>
<!DOCTYPE svg PUBLIC "-//W3C//DTD SVG 1.1//EN" "http://www.w3.org/Graphics/SVG/1.1/DTD/svg11.dtd">
<svg xmlns="http://www.w3.org/2000/svg" xmlns:xlink="http://www.w3.org/1999/xlink" version="1.1" width="1080" height="1080" viewBox="0 0 1080 1080" xml:space="preserve">
<desc>Created with Fabric.js 5.2.4</desc>
<defs>
</defs>
<g transform="matrix(1 0 0 1 540 540)" id="70c2b18f-eafd-46c0-b257-1be0ccf3c926"  >
</g>
<g transform="matrix(1 0 0 1 540 540)" id="777aa14f-d6f2-4c17-b0c0-e43f959c58bf"  >
<rect style="stroke: none; stroke-width: 1; stroke-dasharray: none; stroke-linecap: butt; stroke-dashoffset: 0; stroke-linejoin: miter; stroke-miterlimit: 4; fill: rgb(255,255,255); fill-rule: nonzero; opacity: 1; visibility: hidden;" vector-effect="non-scaling-stroke"  x="-540" y="-540" rx="0" ry="0" width="1080" height="1080" />
</g>
<g transform="matrix(1 0 0 1 664.83 602.87)"  >
<path style="stroke: rgb(212,199,229); stroke-width: 2; stroke-dasharray: 6 6; stroke-linecap: round; stroke-dashoffset: 0; stroke-linejoin: miter; stroke-miterlimit: 10; fill: none; fill-rule: nonzero; opacity: 1;" vector-effect="non-scaling-stroke"  transform=" translate(-374.83, -331.83)" d="M 329.238 389.288 C 356.667 386.146 377.024 358.687 385.733 340.61 C 394.161 323.117 425.559 341.04900000000004 415.274 349.406 C 404.988 357.76300000000003 390.048 336.22 396.673 317.709 C 401.523 304.157 423.952 290.589 419.935 274.376" stroke-linecap="round" />
</g>
<g transform="matrix(1 0 0 1 417.86 437.54)"  >
<path style="stroke: rgb(212,199,229); stroke-width: 2; stroke-dasharray: 6 6; stroke-linecap: round; stroke-dashoffset: 0; stroke-linejoin: miter; stroke-miterlimit: 10; fill: none; fill-rule: nonzero; opacity: 1;" vector-effect="non-scaling-stroke"  transform=" translate(-127.85, -166.51)" d="M 75.202 242.946 C 87.738 217.824 96.416 168.721 89.666 151.487 C 82.916 134.253 58.879 132.426 61.31099999999999 150.436 C 63.88199999999999 169.476 102.094 163.18200000000002 107.612 146.467 C 113.13 129.75300000000001 139.084 94.75300000000001 194.571 90.07400000000001" stroke-linecap="round" />
</g>
<g transform="matrix(1 0 0 1 424.39 605.13)"  >
<path style="stroke: rgb(212,199,229); stroke-width: 2; stroke-dasharray: 6 6; stroke-linecap: round; stroke-dashoffset: 0; stroke-linejoin: miter; stroke-miterlimit: 10; fill: none; fill-rule: nonzero; opacity: 1;" vector-effect="non-scaling-stroke"  transform=" translate(-134.39, -334.1)" d="M 216.035 376.244 C 190.595 370.627 148.594 383.67800000000005 101.773 375.055 C 54.952 366.43199999999996 44.238 319.224 58.809 290.11400000000003" stroke-linecap="round" />
</g>
<g transform="matrix(1 0 0 1 660.27 451.1)"  >
<path style="stroke: rgb(212,199,229); stroke-width: 2; stroke-dasharray: 6 6; stroke-linecap: round; stroke-dashoffset: 0; stroke-linejoin: miter; stroke-miterlimit: 10; fill: none; fill-rule: nonzero; opacity: 1;" vector-effect="non-scaling-stroke"  transform=" translate(-370.26, -180.08)" d="M 293.277 108.595 C 308.238 127.502 398.238 122.817 430.381 156.981 C 462.524 191.14499999999998 440.024 243.185 433.59499999999997 251.558" stroke-linecap="round" />
</g>
<g transform="matrix(1 0 0 1 537.52 517.43)"  >
<path style="stroke: none; stroke-width: 1; stroke-dasharray: none; stroke-linecap: butt; stroke-dashoffset: 0; stroke-linejoin: miter; stroke-miterlimit: 4; fill: rgb(238,234,249); fill-rule: nonzero; opacity: 1;" vector-effect="non-scaling-stroke"  transform=" translate(-247.52, -246.4)" d="M 222.769 75.76 C 289.08500000000004 70.641 293.24 121.637 343.351 151.144 C 365.198 164.008 442.096 162.162 442.01300000000003 230.18 C 441.94700000000006 284.647 378.345 300.682 370.807 322.428 C 363.269 344.174 365.62 404.394 306.264 415.332 C 227.943 429.765 209.442 364.167 162.148 360.346 C 114.854 356.525 62.19199999999999 352.202 53.772999999999996 292.569 C 44.870999999999995 229.52 119.192 203.229 130.305 170.65000000000003 C 141.417 138.07 148.086 81.525 222.769 75.76 z" stroke-linecap="round" />
</g>
<g transform="matrix(0.71 -0.71 0.71 0.71 540.2 517.43)"  >
<ellipse style="stroke: none; stroke-width: 1; stroke-dasharray: none; stroke-linecap: butt; stroke-dashoffset: 0; stroke-linejoin: miter; stroke-miterlimit: 4; fill: rgb(172,110,244); fill-rule: nonzero; opacity: 0.74;" vector-effect="non-scaling-stroke"  cx="0" cy="0" rx="102.034" ry="102.034" />
</g>
<g transform="matrix(1 0 0 1 624.31 394.58)"  >
<rect style="stroke: none; stroke-width: 1; stroke-dasharray: none; stroke-linecap: butt; stroke-dashoffset: 0; stroke-linejoin: miter; stroke-miterlimit: 4; fill: rgb(3,35,93); fill-rule: nonzero; opacity: 1;" vector-effect="non-scaling-stroke"  x="-70.655" y="-41.105" rx="0" ry="0" width="141.31" height="82.21" />
</g>
<g transform="matrix(1 0 0 1 624.31 394.58)"  >
<rect style="stroke: none; stroke-width: 1; stroke-dasharray: none; stroke-linecap: butt; stroke-dashoffset: 0; stroke-linejoin: miter; stroke-miterlimit: 4; fill: rgb(255,255,255); fill-rule: nonzero; opacity: 1;" vector-effect="non-scaling-stroke"  x="-68.275" y="-38.73" rx="0" ry="0" width="136.55" height="77.46" />
</g>
<g transform="matrix(1 0 0 1 623.39 394.58)"  >
<path style="stroke: none; stroke-width: 1; stroke-dasharray: none; stroke-linecap: butt; stroke-dashoffset: 0; stroke-linejoin: miter; stroke-miterlimit: 4; fill: rgb(255,175,0); fill-rule: nonzero; opacity: 1;" vector-effect="non-scaling-stroke"  transform=" translate(-333.39, -123.55)" d="M 369.492 95.609 L 297.289 95.609 C 296.046 95.609 295.039 96.616 295.039 97.859 L 295.039 151.487 L 371.74199999999996 151.487 L 371.74199999999996 97.859 C 371.742 96.617 370.734 95.609 369.492 95.609 z" stroke-linecap="round" />
</g>
<g transform="matrix(1 0 0 1 623.39 397.3)"  >
<path style="stroke: none; stroke-width: 1; stroke-dasharray: none; stroke-linecap: butt; stroke-dashoffset: 0; stroke-linejoin: miter; stroke-miterlimit: 4; fill: rgb(255,255,255); fill-rule: nonzero; opacity: 1;" vector-effect="non-scaling-stroke"  transform=" translate(-333.39, -126.27)" d="M 368.048 102.104 L 298.73199999999997 102.104 C 297.489 102.104 296.48199999999997 103.111 296.48199999999997 104.354 L 296.48199999999997 150.435 L 370.298 150.435 L 370.298 104.354 C 370.298 103.112 369.291 102.104 368.048 102.104 z" stroke-linecap="round" />
</g>
<g transform="matrix(1 0 0 1 623.71 398.91)"  >
<path style="stroke: none; stroke-width: 1; stroke-dasharray: none; stroke-linecap: butt; stroke-dashoffset: 0; stroke-linejoin: miter; stroke-miterlimit: 4; fill: rgb(255,175,0); fill-rule: nonzero; opacity: 1;" vector-effect="non-scaling-stroke"  transform=" translate(-333.71, -127.88)" d="M 378.335 106.746 L 371.74399999999997 151.492 L 295.03499999999997 151.492 L 289.07899999999995 111.077 C 288.88599999999997 109.77 289.9 108.596 291.22099999999995 108.596 L 346.9959999999999 108.596 C 348.19199999999995 108.596 349.16099999999994 107.62700000000001 349.16099999999994 106.431 L 349.16099999999994 106.431 C 349.16099999999994 105.235 350.12999999999994 104.26599999999999 351.32599999999996 104.26599999999999 L 376.19399999999996 104.26599999999999 C 377.514 104.265 378.527 105.439 378.335 106.746 z" stroke-linecap="round" />
</g>
<g transform="matrix(1 0 0 1 624.32 443.65)"  >
<polygon style="stroke: none; stroke-width: 1; stroke-dasharray: none; stroke-linecap: butt; stroke-dashoffset: 0; stroke-linejoin: miter; stroke-miterlimit: 4; fill: rgb(3,35,93); fill-rule: nonzero; opacity: 1;" vector-effect="non-scaling-stroke"  points="3.63,1.6 3.63,-7.97 -3.63,-7.97 -3.63,1.6 -24.86,6.24 -24.86,7.97 -3.63,7.97 3.63,7.97 24.86,7.97 24.86,6.24 " />
</g>
<g transform="matrix(1 0 0 1 679.88 489.82)"  >
<polygon style="stroke: none; stroke-width: 1; stroke-dasharray: none; stroke-linecap: butt; stroke-dashoffset: 0; stroke-linejoin: miter; stroke-miterlimit: 4; fill: rgb(212,199,229); fill-rule: nonzero; opacity: 1;" vector-effect="non-scaling-stroke"  points="1.25,32.78 -1.86,17.7 -12.27,-32.78 12.27,18 " />
</g>
<g transform="matrix(1 0 0 1 689.78 480.66)"  >
<polygon style="stroke: none; stroke-width: 1; stroke-dasharray: none; stroke-linecap: butt; stroke-dashoffset: 0; stroke-linejoin: miter; stroke-miterlimit: 4; fill: rgb(212,199,229); fill-rule: nonzero; opacity: 1;" vector-effect="non-scaling-stroke"  points="-22.18,-23.62 22.18,15.84 9.03,23.62 " />
</g>
<g transform="matrix(1 0 0 1 683.21 480.94)"  >
<polygon style="stroke: none; stroke-width: 1; stroke-dasharray: none; stroke-linecap: butt; stroke-dashoffset: 0; stroke-linejoin: miter; stroke-miterlimit: 4; fill: rgb(172,110,244); fill-rule: nonzero; opacity: 1;" vector-effect="non-scaling-stroke"  points="15.61,23.34 7.51,23.9 -15.61,-23.9 " />
</g>
<g transform="matrix(1 0 0 1 672.82 482.28)"  >
<polygon style="stroke: none; stroke-width: 1; stroke-dasharray: none; stroke-linecap: butt; stroke-dashoffset: 0; stroke-linejoin: miter; stroke-miterlimit: 4; fill: rgb(172,110,244); fill-rule: nonzero; opacity: 1;" vector-effect="non-scaling-stroke"  points="5.21,25.24 -0.14,25.13 -5.21,-25.24 " />
</g>
<g transform="matrix(1 0 0 1 684.03 550.11)"  >
<polygon style="stroke: none; stroke-width: 1; stroke-dasharray: none; stroke-linecap: butt; stroke-dashoffset: 0; stroke-linejoin: miter; stroke-miterlimit: 4; fill: rgb(212,199,229); fill-rule: nonzero; opacity: 1;" vector-effect="non-scaling-stroke"  points="-4.58,20.44 -3.64,11.04 -0.5,-20.44 4.58,13.8 " />
</g>
<g transform="matrix(1 0 0 1 692.91 546.36)"  >
<polygon style="stroke: none; stroke-width: 1; stroke-dasharray: none; stroke-linecap: butt; stroke-dashoffset: 0; stroke-linejoin: miter; stroke-miterlimit: 4; fill: rgb(212,199,229); fill-rule: nonzero; opacity: 1;" vector-effect="non-scaling-stroke"  points="-9.38,-16.69 9.38,14.54 0.25,16.69 " />
</g>
<g transform="matrix(1 0 0 1 688.35 546.36)"  >
<polygon style="stroke: none; stroke-width: 1; stroke-dasharray: none; stroke-linecap: butt; stroke-dashoffset: 0; stroke-linejoin: miter; stroke-miterlimit: 4; fill: rgb(172,110,244); fill-rule: nonzero; opacity: 1;" vector-effect="non-scaling-stroke"  points="4.82,16.69 -0.03,15.54 -4.82,-16.69 " />
</g>
<g transform="matrix(1 0 0 1 680.4 545.41)"  >
<polygon style="stroke: none; stroke-width: 1; stroke-dasharray: none; stroke-linecap: butt; stroke-dashoffset: 0; stroke-linejoin: miter; stroke-miterlimit: 4; fill: rgb(172,110,244); fill-rule: nonzero; opacity: 1;" vector-effect="non-scaling-stroke"  points="-0.01,15.74 -3.13,14.7 3.13,-15.74 " />
</g>
<g transform="matrix(1 0 0 1 664.12 583.03)"  >
<polygon style="stroke: none; stroke-width: 1; stroke-dasharray: none; stroke-linecap: butt; stroke-dashoffset: 0; stroke-linejoin: miter; stroke-miterlimit: 4; fill: rgb(212,199,229); fill-rule: nonzero; opacity: 1;" vector-effect="non-scaling-stroke"  points="-9.72,8.97 -5.25,4.7 9.72,-9.58 -2.34,9.58 " />
</g>
<g transform="matrix(1 0 0 1 669.12 585.2)"  >
<polygon style="stroke: none; stroke-width: 1; stroke-dasharray: none; stroke-linecap: butt; stroke-dashoffset: 0; stroke-linejoin: miter; stroke-miterlimit: 4; fill: rgb(212,199,229); fill-rule: nonzero; opacity: 1;" vector-effect="non-scaling-stroke"  points="4.72,-11.75 0.73,11.75 -4.72,8.92 " />
</g>
<g transform="matrix(1 0 0 1 668.15 583.78)"  >
<polygon style="stroke: none; stroke-width: 1; stroke-dasharray: none; stroke-linecap: butt; stroke-dashoffset: 0; stroke-linejoin: miter; stroke-miterlimit: 4; fill: rgb(172,110,244); fill-rule: nonzero; opacity: 1;" vector-effect="non-scaling-stroke"  points="-3.76,10.33 -5.67,7.7 5.68,-10.33 " />
</g>
<g transform="matrix(1 0 0 1 665.8 580.59)"  >
<polygon style="stroke: none; stroke-width: 1; stroke-dasharray: none; stroke-linecap: butt; stroke-dashoffset: 0; stroke-linejoin: miter; stroke-miterlimit: 4; fill: rgb(172,110,244); fill-rule: nonzero; opacity: 1;" vector-effect="non-scaling-stroke"  points="-6.93,7.14 -8.03,5.3 8.03,-7.14 " />
</g>
<g transform="matrix(1 0 0 1 610.84 638.91)"  >
<rect style="stroke: none; stroke-width: 1; stroke-dasharray: none; stroke-linecap: butt; stroke-dashoffset: 0; stroke-linejoin: miter; stroke-miterlimit: 4; fill: rgb(3,35,93); fill-rule: nonzero; opacity: 1;" vector-effect="non-scaling-stroke"  x="-54.76" y="-31.86" rx="0" ry="0" width="109.52" height="63.72" />
</g>
<g transform="matrix(1 0 0 1 610.84 638.91)"  >
<rect style="stroke: none; stroke-width: 1; stroke-dasharray: none; stroke-linecap: butt; stroke-dashoffset: 0; stroke-linejoin: miter; stroke-miterlimit: 4; fill: rgb(255,255,255); fill-rule: nonzero; opacity: 1;" vector-effect="non-scaling-stroke"  x="-52.92" y="-30.02" rx="0" ry="0" width="105.84" height="60.04" />
</g>
<g transform="matrix(1 0 0 1 610.84 676.95)"  >
<polygon style="stroke: none; stroke-width: 1; stroke-dasharray: none; stroke-linecap: butt; stroke-dashoffset: 0; stroke-linejoin: miter; stroke-miterlimit: 4; fill: rgb(3,35,93); fill-rule: nonzero; opacity: 1;" vector-effect="non-scaling-stroke"  points="2.82,1.24 2.82,-6.18 -2.82,-6.18 -2.82,1.24 -19.27,4.83 -19.27,6.18 -2.82,6.18 2.82,6.18 19.27,6.18 19.27,4.83 " />
</g>
<g transform="matrix(1 0 0 1 576.32 626.5)"  >
<path style="stroke: none; stroke-width: 1; stroke-dasharray: none; stroke-linecap: butt; stroke-dashoffset: 0; stroke-linejoin: miter; stroke-miterlimit: 4; fill: rgb(255,175,0); fill-rule: nonzero; opacity: 1;" vector-effect="non-scaling-stroke"  transform=" translate(-286.32, -355.47)" d="M 286.319 355.469 L 294.238 355.469 C 294.238 359.813 290.663 363.388 286.319 363.388 C 281.975 363.388 278.40000000000003 359.813 278.40000000000003 355.469 C 278.40000000000003 351.125 281.975 347.55 286.319 347.55 C 288.769 347.55 291.086 348.687 292.584 350.625 L 286.319 355.469 z" stroke-linecap="round" />
</g>
<g transform="matrix(1 0 0 1 619.07 621.12)"  >
<rect style="stroke: none; stroke-width: 1; stroke-dasharray: none; stroke-linecap: butt; stroke-dashoffset: 0; stroke-linejoin: miter; stroke-miterlimit: 4; fill: rgb(212,199,229); fill-rule: nonzero; opacity: 1;" vector-effect="non-scaling-stroke"  x="-20.23" y="-0.68" rx="0" ry="0" width="40.46" height="1.36" />
</g>
<g transform="matrix(1 0 0 1 615.32 624.21)"  >
<rect style="stroke: none; stroke-width: 1; stroke-dasharray: none; stroke-linecap: butt; stroke-dashoffset: 0; stroke-linejoin: miter; stroke-miterlimit: 4; fill: rgb(212,199,229); fill-rule: nonzero; opacity: 1;" vector-effect="non-scaling-stroke"  x="-16.48" y="-0.68" rx="0" ry="0" width="32.96" height="1.36" />
</g>
<g transform="matrix(1 0 0 1 619.07 627.3)"  >
<rect style="stroke: none; stroke-width: 1; stroke-dasharray: none; stroke-linecap: butt; stroke-dashoffset: 0; stroke-linejoin: miter; stroke-miterlimit: 4; fill: rgb(212,199,229); fill-rule: nonzero; opacity: 1;" vector-effect="non-scaling-stroke"  x="-20.23" y="-0.68" rx="0" ry="0" width="40.46" height="1.36" />
</g>
<g transform="matrix(1 0 0 1 616.71 630.4)"  >
<rect style="stroke: none; stroke-width: 1; stroke-dasharray: none; stroke-linecap: butt; stroke-dashoffset: 0; stroke-linejoin: miter; stroke-miterlimit: 4; fill: rgb(212,199,229); fill-rule: nonzero; opacity: 1;" vector-effect="non-scaling-stroke"  x="-17.87" y="-0.68" rx="0" ry="0" width="35.74" height="1.36" />
</g>
<g transform="matrix(1 0 0 1 587.52 647.95)"  >
<rect style="stroke: none; stroke-width: 1; stroke-dasharray: none; stroke-linecap: butt; stroke-dashoffset: 0; stroke-linejoin: miter; stroke-miterlimit: 4; fill: rgb(212,199,229); fill-rule: nonzero; opacity: 1;" vector-effect="non-scaling-stroke"  x="-20.23" y="-0.68" rx="0" ry="0" width="40.46" height="1.36" />
</g>
<g transform="matrix(1 0 0 1 586.71 651.05)"  >
<rect style="stroke: none; stroke-width: 1; stroke-dasharray: none; stroke-linecap: butt; stroke-dashoffset: 0; stroke-linejoin: miter; stroke-miterlimit: 4; fill: rgb(212,199,229); fill-rule: nonzero; opacity: 1;" vector-effect="non-scaling-stroke"  x="-19.425" y="-0.68" rx="0" ry="0" width="38.85" height="1.36" />
</g>
<g transform="matrix(1 0 0 1 587.52 654.14)"  >
<rect style="stroke: none; stroke-width: 1; stroke-dasharray: none; stroke-linecap: butt; stroke-dashoffset: 0; stroke-linejoin: miter; stroke-miterlimit: 4; fill: rgb(212,199,229); fill-rule: nonzero; opacity: 1;" vector-effect="non-scaling-stroke"  x="-20.23" y="-0.68" rx="0" ry="0" width="40.46" height="1.36" />
</g>
<g transform="matrix(1 0 0 1 585.16 657.23)"  >
<rect style="stroke: none; stroke-width: 1; stroke-dasharray: none; stroke-linecap: butt; stroke-dashoffset: 0; stroke-linejoin: miter; stroke-miterlimit: 4; fill: rgb(212,199,229); fill-rule: nonzero; opacity: 1;" vector-effect="non-scaling-stroke"  x="-17.87" y="-0.68" rx="0" ry="0" width="35.74" height="1.36" />
</g>
<g transform="matrix(1 0 0 1 626.09 653.22)"  >
<rect style="stroke: none; stroke-width: 1; stroke-dasharray: none; stroke-linecap: butt; stroke-dashoffset: 0; stroke-linejoin: miter; stroke-miterlimit: 4; fill: rgb(172,110,244); fill-rule: nonzero; opacity: 1;" vector-effect="non-scaling-stroke"  x="-7.02" y="-7.795" rx="0" ry="0" width="14.04" height="15.59" />
</g>
<g transform="matrix(1 0 0 1 645.64 653.22)"  >
<rect style="stroke: none; stroke-width: 1; stroke-dasharray: none; stroke-linecap: butt; stroke-dashoffset: 0; stroke-linejoin: miter; stroke-miterlimit: 4; fill: rgb(212,199,229); fill-rule: nonzero; opacity: 1;" vector-effect="non-scaling-stroke"  x="-7.02" y="-7.795" rx="0" ry="0" width="14.04" height="15.59" />
</g>
<g transform="matrix(1 0 0 1 403.95 530.03)"  >
<path style="stroke: none; stroke-width: 1; stroke-dasharray: none; stroke-linecap: butt; stroke-dashoffset: 0; stroke-linejoin: miter; stroke-miterlimit: 4; fill: rgb(3,35,93); fill-rule: nonzero; opacity: 1;" vector-effect="non-scaling-stroke"  transform=" translate(-113.95, -258.99)" d="M 164.98 268.077 L 137.036 305.399 C 136.07 306.69 134.24 306.953 132.949 305.986 L 63.512000000000015 253.99599999999998 C 62.22100000000002 253.02999999999997 61.95800000000001 251.2 62.92500000000001 249.909 L 90.86900000000001 212.587 C 91.83500000000001 211.296 93.66500000000002 211.033 94.95600000000002 212 L 164.39300000000003 263.99 C 165.684 264.956 165.947 266.786 164.98 268.077 z" stroke-linecap="round" />
</g>
<g transform="matrix(0.6 -0.8 0.8 0.6 402.37 528.82)"  >
<rect style="stroke: none; stroke-width: 1; stroke-dasharray: none; stroke-linecap: butt; stroke-dashoffset: 0; stroke-linejoin: miter; stroke-miterlimit: 4; fill: rgb(255,255,255); fill-rule: nonzero; opacity: 1;" vector-effect="non-scaling-stroke"  x="-24.47" y="-39.405" rx="0" ry="0" width="48.94" height="78.81" />
</g>
<g transform="matrix(1 0 0 1 437.39 555.05)"  >
<path style="stroke: none; stroke-width: 1; stroke-dasharray: none; stroke-linecap: butt; stroke-dashoffset: 0; stroke-linejoin: miter; stroke-miterlimit: 4; fill: rgb(82,94,143); fill-rule: nonzero; opacity: 1;" vector-effect="non-scaling-stroke"  transform=" translate(-147.39, -284.03)" d="M 148.844 282.089 C 149.916 282.892 150.134 284.411 149.332 285.483 C 148.529 286.555 147.01 286.773 145.938 285.971 C 144.86599999999999 285.168 144.648 283.649 145.45 282.577 C 146.252 281.504 147.772 281.286 148.844 282.089 z" stroke-linecap="round" />
</g>
<g transform="matrix(1 0 0 1 404.72 531.06)"  >
<path style="stroke: none; stroke-width: 1; stroke-dasharray: none; stroke-linecap: butt; stroke-dashoffset: 0; stroke-linejoin: miter; stroke-miterlimit: 4; fill: rgb(231,223,249); fill-rule: nonzero; opacity: 1;" vector-effect="non-scaling-stroke"  transform=" translate(-114.72, -260.04)" d="M 119.219 245.727 L 118.634 246.508 C 113.792 242.883 106.928 243.869 103.30199999999999 248.711 C 100.928 251.882 100.532 255.92100000000002 101.901 259.349 C 101.761 259.49899999999997 101.627 259.657 101.50099999999999 259.825 C 99.603 262.36 100.11999999999999 265.953 102.654 267.84999999999997 C 102.655 267.85099999999994 102.65599999999999 267.852 102.657 267.852 C 100.904 270.26899999999995 101.407 273.65299999999996 103.80499999999999 275.448 L 103.80499999999999 275.448 C 106.226 277.26099999999997 109.65799999999999 276.767 111.47099999999999 274.346 L 127.98499999999999 252.291 C 129.79799999999997 249.87 129.30399999999997 246.438 126.88299999999998 244.625 L 126.88299999999998 244.625 C 124.464 242.813 121.031 243.306 119.219 245.727 z" stroke-linecap="round" />
</g>
<g transform="matrix(1 0 0 1 405.15 530.11)"  >
<polygon style="stroke: none; stroke-width: 1; stroke-dasharray: none; stroke-linecap: butt; stroke-dashoffset: 0; stroke-linejoin: miter; stroke-miterlimit: 4; fill: rgb(212,199,229); fill-rule: nonzero; opacity: 1;" vector-effect="non-scaling-stroke"  points="4.58,4.24 -4.58,4.67 2.42,-4.67 " />
</g>
<g transform="matrix(0.6 -0.8 0.8 0.6 402.93 529.27)"  >
<rect style="stroke: none; stroke-width: 1; stroke-dasharray: none; stroke-linecap: butt; stroke-dashoffset: 0; stroke-linejoin: miter; stroke-miterlimit: 4; fill: rgb(212,199,229); fill-rule: nonzero; opacity: 1;" vector-effect="non-scaling-stroke"  x="-2.21" y="-2.815" rx="0" ry="0" width="4.42" height="5.63" />
</g>
<g transform="matrix(1 0 0 1 413.54 440.25)"  >
<path style="stroke: none; stroke-width: 1; stroke-dasharray: none; stroke-linecap: butt; stroke-dashoffset: 0; stroke-linejoin: miter; stroke-miterlimit: 4; fill: rgb(212,199,229); fill-rule: nonzero; opacity: 1;" vector-effect="non-scaling-stroke"  transform=" translate(-123.54, -169.21)" d="M 131.012 193.754 C 142.927 178.105 143.816 142.53799999999998 143.816 142.53799999999998 C 143.816 142.53799999999998 134.391 145.206 125.321 144.13899999999998 C 116.251 143.07199999999997 107.36 145.73899999999998 107.36 145.73899999999998 C 107.36 145.73899999999998 108.605 178.99399999999997 103.27 195.88799999999998 C 103.27 195.88799999999998 108.205 193.39799999999997 114.073 193.13099999999997 C 119.941 192.865 131.012 193.754 131.012 193.754 z" stroke-linecap="round" />
</g>
<g transform="matrix(1 0 0 1 414.07 423.89)"  >
<path style="stroke: none; stroke-width: 1; stroke-dasharray: none; stroke-linecap: butt; stroke-dashoffset: 0; stroke-linejoin: miter; stroke-miterlimit: 4; fill: rgb(172,110,244); fill-rule: nonzero; opacity: 1;" vector-effect="non-scaling-stroke"  transform=" translate(-124.07, -152.86)" d="M 137.383 151.027 C 137.372 151.37599999999998 137.34900000000002 151.759 137.33800000000002 152.18599999999998 C 133.466 153.00799999999998 126.38500000000002 153.53699999999998 121.38700000000003 153.00799999999998 C 116.81700000000004 152.53499999999997 112.74200000000003 153.87499999999997 110.77200000000003 154.69699999999997 C 110.77200000000003 154.29199999999997 110.76100000000004 153.88699999999997 110.75000000000003 153.48099999999997 C 112.94500000000002 152.61399999999998 116.95200000000003 151.40999999999997 121.50000000000003 151.89399999999998 C 126.521 152.422 133.691 151.871 137.383 151.027 z" stroke-linecap="round" />
</g>
<g transform="matrix(1 0 0 1 413.84 429.71)"  >
<path style="stroke: none; stroke-width: 1; stroke-dasharray: none; stroke-linecap: butt; stroke-dashoffset: 0; stroke-linejoin: miter; stroke-miterlimit: 4; fill: rgb(172,110,244); fill-rule: nonzero; opacity: 1;" vector-effect="non-scaling-stroke"  transform=" translate(-123.84, -158.68)" d="M 137.023 156.981 C 137 157.353 136.96699999999998 157.74599999999998 136.933 158.14 C 133.027 158.98399999999998 126.74499999999999 159.41199999999998 120.75699999999999 158.523 C 116.77199999999999 157.938 112.585 159.502 110.64899999999999 160.38 C 110.67099999999999 159.963 110.68299999999999 159.547 110.70499999999998 159.13 C 112.91099999999999 158.173 116.94099999999999 156.822 120.92599999999999 157.408 C 126.948 158.31 133.264 157.837 137.023 156.981 z" stroke-linecap="round" />
</g>
<g transform="matrix(1 0 0 1 413.35 435.51)"  >
<path style="stroke: none; stroke-width: 1; stroke-dasharray: none; stroke-linecap: butt; stroke-dashoffset: 0; stroke-linejoin: miter; stroke-miterlimit: 4; fill: rgb(172,110,244); fill-rule: nonzero; opacity: 1;" vector-effect="non-scaling-stroke"  transform=" translate(-123.36, -164.48)" d="M 136.472 162.734 C 136.43800000000002 163.12800000000001 136.382 163.52200000000002 136.33700000000002 163.916 C 133.275 164.468 130.19100000000003 164.276 126.96000000000002 164.06199999999998 C 124.88900000000002 163.927 122.76100000000002 163.78099999999998 120.55500000000002 163.837 C 116.27800000000002 163.95 111.98900000000002 165.53699999999998 110.24400000000003 166.25699999999998 C 110.27800000000003 165.83999999999997 110.31200000000003 165.42399999999998 110.35700000000003 164.99599999999998 C 112.40600000000003 164.17399999999998 116.41300000000003 162.81199999999998 120.52200000000002 162.71099999999998 C 122.78500000000003 162.65499999999997 124.94600000000003 162.801 127.02800000000002 162.93599999999998 C 130.303 163.15 133.432 163.353 136.472 162.734 z" stroke-linecap="round" />
</g>
<g transform="matrix(1 0 0 1 412.65 441.04)"  >
<path style="stroke: none; stroke-width: 1; stroke-dasharray: none; stroke-linecap: butt; stroke-dashoffset: 0; stroke-linejoin: miter; stroke-miterlimit: 4; fill: rgb(172,110,244); fill-rule: nonzero; opacity: 1;" vector-effect="non-scaling-stroke"  transform=" translate(-122.64, -170.01)" d="M 135.639 168.643 C 135.571 169.026 135.50400000000002 169.397 135.436 169.769 C 134.243 169.747 132.847 169.69 131.293 169.63400000000001 C 128.107 169.52100000000002 124.134 169.37500000000003 119.912 169.431 C 115.938 169.48700000000002 111.72800000000001 170.92800000000003 109.646 171.727 C 109.702 171.322 109.759 170.894 109.804 170.455 C 112.089 169.60000000000002 116.051 168.36100000000002 119.901 168.305 C 124.145 168.249 128.13 168.395 131.338 168.508 C 132.971 168.576 134.423 168.632 135.639 168.643 z" stroke-linecap="round" />
</g>
<g transform="matrix(1 0 0 1 411.65 446.66)"  >
<path style="stroke: none; stroke-width: 1; stroke-dasharray: none; stroke-linecap: butt; stroke-dashoffset: 0; stroke-linejoin: miter; stroke-miterlimit: 4; fill: rgb(172,110,244); fill-rule: nonzero; opacity: 1;" vector-effect="non-scaling-stroke"  transform=" translate(-121.65, -175.63)" d="M 134.479 174.092 C 134.389 174.47500000000002 134.288 174.846 134.186 175.20600000000002 C 131.24800000000002 175.06000000000003 125.09 174.79000000000002 120.61000000000001 174.88000000000002 C 116.37700000000001 174.95900000000003 111.13200000000002 176.69200000000004 108.82400000000001 177.52500000000003 C 108.88000000000001 177.14200000000002 108.94800000000001 176.71400000000003 109.01500000000001 176.25300000000004 C 111.59300000000002 175.34100000000004 116.46700000000001 173.82200000000003 120.58700000000002 173.75400000000005 C 125.226 173.664 131.631 173.945 134.479 174.092 z" stroke-linecap="round" />
</g>
<g transform="matrix(1 0 0 1 522.46 365.31)"  >
<path style="stroke: none; stroke-width: 1; stroke-dasharray: none; stroke-linecap: butt; stroke-dashoffset: 0; stroke-linejoin: miter; stroke-miterlimit: 4; fill: rgb(172,110,244); fill-rule: nonzero; opacity: 1;" vector-effect="non-scaling-stroke"  transform=" translate(-232.46, -94.27)" d="M 237.192 110.011 C 226.882 99.33699999999999 220.08 103.42999999999999 220.08 103.42999999999999 C 220.67000000000002 100.85199999999999 221.42800000000003 98.353 222.30800000000002 95.946 C 229.20700000000002 87.64099999999999 237.19800000000004 82.15899999999999 244.848 78.538 C 236.031 93.04 237.165 109.585 237.192 110.011 z" stroke-linecap="round" />
</g>
<g transform="matrix(1 0 0 1 538.72 348.82)"  >
<path style="stroke: none; stroke-width: 1; stroke-dasharray: none; stroke-linecap: butt; stroke-dashoffset: 0; stroke-linejoin: miter; stroke-miterlimit: 4; fill: rgb(212,199,229); fill-rule: nonzero; opacity: 1;" vector-effect="non-scaling-stroke"  transform=" translate(-248.72, -77.78)" d="M 275.136 71.525 C 275.136 71.525 260.73900000000003 71.007 244.85500000000002 78.527 L 244.84400000000002 78.538 C 237.20100000000002 82.163 229.20800000000003 87.645 222.30800000000002 95.941 C 224.604 89.705 227.76800000000003 84.08800000000001 231.122 79.225 C 231.347 78.887 231.584 78.55 231.82000000000002 78.223 C 233.01300000000003 76.535 234.21800000000002 74.959 235.41100000000003 73.484 C 235.68100000000004 73.158 235.95100000000002 72.83099999999999 236.21000000000004 72.51599999999999 C 237.56100000000004 70.895 238.87800000000004 69.41999999999999 240.12700000000004 68.08099999999999 L 240.13800000000003 68.08099999999999 C 240.45300000000003 67.743 240.75700000000003 67.41699999999999 241.07200000000003 67.08999999999999 C 242.27600000000004 65.841 243.41300000000004 64.72599999999998 244.41500000000002 63.76899999999999 C 244.78700000000003 63.419999999999995 245.14700000000002 63.093999999999994 245.484 62.78999999999999 C 247.735 60.72999999999999 249.17600000000002 59.626999999999995 249.17600000000002 59.626999999999995 C 261.448 59.683 275.136 71.525 275.136 71.525 z" stroke-linecap="round" />
</g>
<g transform="matrix(1 0 0 1 542.19 336.88)"  >
<path style="stroke: none; stroke-width: 1; stroke-dasharray: none; stroke-linecap: butt; stroke-dashoffset: 0; stroke-linejoin: miter; stroke-miterlimit: 4; fill: rgb(172,110,244); fill-rule: nonzero; opacity: 1;" vector-effect="non-scaling-stroke"  transform=" translate(-252.18, -65.85)" d="M 259.951 68.677 C 259.512 68.744 259.017 68.82300000000001 258.499 68.91300000000001 C 254.25500000000002 65.50200000000001 246.98300000000003 64.15100000000001 244.41700000000003 63.76900000000001 C 244.78900000000004 63.420000000000016 245.14900000000003 63.094000000000015 245.48600000000002 62.79000000000001 C 248.863 63.364 255.966 64.951 259.951 68.677 z" stroke-linecap="round" />
</g>
<g transform="matrix(1 0 0 1 534.95 340.42)"  >
<path style="stroke: none; stroke-width: 1; stroke-dasharray: none; stroke-linecap: butt; stroke-dashoffset: 0; stroke-linejoin: miter; stroke-miterlimit: 4; fill: rgb(172,110,244); fill-rule: nonzero; opacity: 1;" vector-effect="non-scaling-stroke"  transform=" translate(-244.95, -69.39)" d="M 249.764 71.255 C 249.37 71.37899999999999 248.976 71.52499999999999 248.571 71.68299999999999 C 245.96 69.285 242.121 68.39599999999999 240.14 68.08099999999999 C 240.45499999999998 67.743 240.759 67.41699999999999 241.07399999999998 67.08999999999999 C 243.426 67.529 247.208 68.621 249.764 71.255 z" stroke-linecap="round" />
</g>
<g transform="matrix(1 0 0 1 528.46 344.98)"  >
<path style="stroke: none; stroke-width: 1; stroke-dasharray: none; stroke-linecap: butt; stroke-dashoffset: 0; stroke-linejoin: miter; stroke-miterlimit: 4; fill: rgb(172,110,244); fill-rule: nonzero; opacity: 1;" vector-effect="non-scaling-stroke"  transform=" translate(-238.46, -73.95)" d="M 241.512 74.778 C 241.14 74.96900000000001 240.769 75.161 240.386 75.375 C 238.742 74.339 236.75 73.777 235.411 73.484 C 235.681 73.158 235.951 72.83099999999999 236.21 72.51599999999999 C 237.753 72.876 239.835 73.563 241.512 74.778 z" stroke-linecap="round" />
</g>
<g transform="matrix(1 0 0 1 522.66 350.06)"  >
<path style="stroke: none; stroke-width: 1; stroke-dasharray: none; stroke-linecap: butt; stroke-dashoffset: 0; stroke-linejoin: miter; stroke-miterlimit: 4; fill: rgb(172,110,244); fill-rule: nonzero; opacity: 1;" vector-effect="non-scaling-stroke"  transform=" translate(-232.66, -79.03)" d="M 234.207 79.101 C 233.858 79.337 233.498 79.585 233.149 79.833 C 232.496 79.563 231.708 79.349 231.123 79.225 C 231.34799999999998 78.887 231.58499999999998 78.55 231.821 78.223 C 232.541 78.403 233.475 78.685 234.207 79.101 z" stroke-linecap="round" />
</g>
<g transform="matrix(1 0 0 1 466.87 375.29)"  >
<path style="stroke: none; stroke-width: 1; stroke-dasharray: none; stroke-linecap: butt; stroke-dashoffset: 0; stroke-linejoin: miter; stroke-miterlimit: 4; fill: rgb(172,110,244); fill-rule: nonzero; opacity: 1;" vector-effect="non-scaling-stroke"  transform=" translate(-176.87, -104.27)" d="M 205.144 86.48 C 205.144 86.48 199.538 95.857 191.523 105.47 C 183.272 115.353 172.454 125.496 162.548 125.89 C 162.548 125.89 157.113 125.89 148.601 124.595 C 148.601 124.595 162.436 112.742 171.486 82.64099999999999 C 171.486 82.641 191.917 91.185 205.144 86.48 z" stroke-linecap="round" />
</g>
<g transform="matrix(1 0 0 1 467.04 386.71)"  >
<path style="stroke: none; stroke-width: 1; stroke-dasharray: none; stroke-linecap: butt; stroke-dashoffset: 0; stroke-linejoin: miter; stroke-miterlimit: 4; fill: rgb(212,199,229); fill-rule: nonzero; opacity: 1;" vector-effect="non-scaling-stroke"  transform=" translate(-177.04, -115.68)" d="M 191.523 105.47 C 183.272 115.353 172.454 125.496 162.548 125.89 C 162.548 125.89 165.918 125.89 163.088 120.307 C 163.089 120.306 180.514 116.198 191.523 105.47 z" stroke-linecap="round" />
</g>
<g transform="matrix(1 0 0 1 421.9 608.97)"  >
<path style="stroke: none; stroke-width: 1; stroke-dasharray: none; stroke-linecap: butt; stroke-dashoffset: 0; stroke-linejoin: miter; stroke-miterlimit: 4; fill: rgb(172,110,244); fill-rule: nonzero; opacity: 1;" vector-effect="non-scaling-stroke"  transform=" translate(-131.91, -337.94)" d="M 140.202 356.397 L 116.819 351.42699999999996 C 114.45400000000001 350.924 112.94500000000001 348.59999999999997 113.447 346.23499999999996 L 118.417 322.852 C 118.92 320.48699999999997 121.244 318.97799999999995 123.60900000000001 319.47999999999996 L 146.99200000000002 324.45 C 149.35700000000003 324.953 150.866 327.277 150.36400000000003 329.642 L 145.39400000000003 353.024 C 144.891 355.39 142.567 356.9 140.202 356.397 z" stroke-linecap="round" />
</g>
<g transform="matrix(1 0 0 1 421.91 608.97)"  >
<path style="stroke: rgb(255,255,255); stroke-width: 1; stroke-dasharray: none; stroke-linecap: butt; stroke-dashoffset: 0; stroke-linejoin: miter; stroke-miterlimit: 10; fill: none; fill-rule: nonzero; opacity: 1;" vector-effect="non-scaling-stroke"  transform=" translate(-131.91, -337.94)" d="M 138.477 353.1 L 119.736 349.117 C 117.638 348.671 116.299 346.60900000000004 116.744 344.511 L 120.727 325.77000000000004 C 121.173 323.672 123.235 322.33200000000005 125.333 322.778 L 144.074 326.761 C 146.17200000000003 327.20700000000005 147.512 329.269 147.066 331.36800000000005 L 143.083 350.10800000000006 C 142.637 352.207 140.575 353.546 138.477 353.1 z" stroke-linecap="round" />
</g>
<g transform="matrix(1 0 0 1 421.2 609.49)"  >
<path style="stroke: none; stroke-width: 1; stroke-dasharray: none; stroke-linecap: butt; stroke-dashoffset: 0; stroke-linejoin: miter; stroke-miterlimit: 4; fill: rgb(255,255,255); fill-rule: nonzero; opacity: 1;" vector-effect="non-scaling-stroke"  transform=" translate(-131.21, -338.45)" d="M 129.264 328.237 L 127.06700000000001 338.57300000000004 C 126.664 338.11100000000005 126.12200000000001 337.76500000000004 125.477 337.62800000000004 C 123.893 337.29100000000005 122.336 338.302 122 339.886 C 121.663 341.47 122.674 343.02700000000004 124.258 343.363 C 125.842 343.7 127.399 342.689 127.735 341.105 L 129.543 332.6 L 138.847 338.728 L 137.738 343.946 C 137.328 343.42 136.748 343.021 136.045 342.872 C 134.46099999999998 342.535 132.904 343.546 132.56799999999998 345.13 C 132.23199999999997 346.714 133.242 348.271 134.826 348.60699999999997 C 136.41 348.94399999999996 137.96699999999998 347.933 138.303 346.349 L 140.481 336.103 L 129.264 328.237 z" stroke-linecap="round" />
</g>
<g transform="matrix(1 0 0 1 527.42 642.51)"  >
<path style="stroke: none; stroke-width: 1; stroke-dasharray: none; stroke-linecap: butt; stroke-dashoffset: 0; stroke-linejoin: miter; stroke-miterlimit: 4; fill: rgb(172,110,244); fill-rule: nonzero; opacity: 1;" vector-effect="non-scaling-stroke"  transform=" translate(-237.42, -371.48)" d="M 235.406 360.901 L 233.131 371.60200000000003 C 232.714 371.124 232.153 370.76500000000004 231.484 370.62300000000005 C 229.84400000000002 370.27500000000003 228.233 371.321 227.88400000000001 372.96100000000007 C 227.536 374.60100000000006 228.58200000000002 376.2130000000001 230.222 376.5610000000001 C 231.862 376.9100000000001 233.47400000000002 375.8630000000001 233.822 374.22300000000007 L 235.693 365.41800000000006 L 245.32500000000002 371.76200000000006 L 244.17700000000002 377.16400000000004 C 243.75300000000001 376.619 243.15300000000002 376.20700000000005 242.42400000000004 376.052 C 240.78400000000005 375.704 239.17200000000003 376.75 238.82400000000004 378.39000000000004 C 238.47600000000006 380.0300000000001 239.52200000000005 381.64200000000005 241.16200000000003 381.99000000000007 C 242.80200000000002 382.3380000000001 244.41400000000004 381.2920000000001 244.76200000000003 379.65200000000004 L 247.01700000000002 369.0450000000001 L 235.406 360.901 z" stroke-linecap="round" />
</g>
<g transform="matrix(1 0 0 1 516.94 660.32)"  >
<path style="stroke: none; stroke-width: 1; stroke-dasharray: none; stroke-linecap: butt; stroke-dashoffset: 0; stroke-linejoin: miter; stroke-miterlimit: 4; fill: rgb(172,110,244); fill-rule: nonzero; opacity: 1;" vector-effect="non-scaling-stroke"  transform=" translate(-226.94, -389.29)" d="M 224.547 384.856 L 232.07 384.846 L 230.135 381.413 L 221.885 381.19100000000003 L 225.715 391.44800000000004 C 225.105 391.27000000000004 224.439 391.26500000000004 223.793 391.51000000000005 C 222.229 392.09100000000007 221.418 393.83500000000004 222.005 395.40900000000005 C 222.59199999999998 396.98300000000006 224.34 397.77700000000004 225.914 397.19100000000003 C 227.488 396.60400000000004 228.28199999999998 394.85600000000005 227.696 393.28200000000004 L 224.547 384.856 z" stroke-linecap="round" />
</g>
<g transform="matrix(1 0 0 1 530.2 661.25)"  >
<path style="stroke: none; stroke-width: 1; stroke-dasharray: none; stroke-linecap: butt; stroke-dashoffset: 0; stroke-linejoin: miter; stroke-miterlimit: 4; fill: rgb(172,110,244); fill-rule: nonzero; opacity: 1;" vector-effect="non-scaling-stroke"  transform=" translate(-240.19, -390.22)" d="M 240.178 388.053 L 244.21699999999998 389.931 L 244.03799999999998 387.60499999999996 L 239.66699999999997 385.41999999999996 L 239.15399999999997 391.88199999999995 C 238.87099999999998 391.63399999999996 238.51499999999996 391.465 238.10699999999997 391.43399999999997 C 237.12199999999996 391.354 236.25099999999998 392.087 236.17199999999997 393.07899999999995 C 236.09299999999996 394.07099999999997 236.83199999999997 394.93399999999997 237.82299999999998 395.01399999999995 C 238.81499999999997 395.09299999999996 239.67799999999997 394.3539999999999 239.75699999999998 393.36299999999994 L 240.178 388.053 z" stroke-linecap="round" />
</g>
<g transform="matrix(1 0 0 1 468.49 645.43)"  >
<path style="stroke: none; stroke-width: 1; stroke-dasharray: none; stroke-linecap: butt; stroke-dashoffset: 0; stroke-linejoin: miter; stroke-miterlimit: 4; fill: rgb(212,199,229); fill-rule: nonzero; opacity: 1;" vector-effect="non-scaling-stroke"  transform=" translate(-178.5, -374.4)" d="M 195.319 385.65 L 172.85999999999999 393.837 C 170.589 394.66499999999996 168.076 393.495 167.248 391.223 L 159.06099999999998 368.764 C 158.23299999999998 366.493 159.403 363.98 161.67499999999998 363.152 L 184.134 354.965 C 186.40499999999997 354.137 188.91799999999998 355.30699999999996 189.74599999999998 357.57899999999995 L 197.933 380.03799999999995 C 198.761 382.309 197.59 384.822 195.319 385.65 z" stroke-linecap="round" />
</g>
<g transform="matrix(1 0 0 1 468.97 646.09)"  >
<path style="stroke: none; stroke-width: 1; stroke-dasharray: none; stroke-linecap: butt; stroke-dashoffset: 0; stroke-linejoin: miter; stroke-miterlimit: 4; fill: rgb(172,110,244); fill-rule: nonzero; opacity: 1;" vector-effect="non-scaling-stroke"  transform=" translate(-178.98, -375.05)" d="M 174.257 371.291 L 177.25300000000001 379.51 C 177.53 380.27 178.544 380.40999999999997 179.01700000000002 379.754 L 183.57000000000002 373.439 C 183.98600000000002 372.862 183.68900000000002 372.04600000000005 182.99900000000002 371.872 L 175.45000000000002 369.968 C 174.666 369.771 173.98 370.531 174.257 371.291 z" stroke-linecap="round" />
</g>
<g transform="matrix(1 0 0 1 468.49 645.43)"  >
<path style="stroke: rgb(255,255,255); stroke-width: 1; stroke-dasharray: none; stroke-linecap: butt; stroke-dashoffset: 0; stroke-linejoin: miter; stroke-miterlimit: 10; fill: none; fill-rule: nonzero; opacity: 1;" vector-effect="non-scaling-stroke"  transform=" translate(-178.5, -374.4)" d="M 188.494 370.757 C 190.506 376.278 187.662 382.386 182.141 384.398 C 176.62 386.41 170.512 383.56600000000003 168.5 378.045 C 166.488 372.524 169.332 366.41700000000003 174.853 364.404 C 180.374 362.391 186.481 365.235 188.494 370.757 z" stroke-linecap="round" />
</g>
<g transform="matrix(1 0 0 1 538.32 489.92)"  >
<path style="stroke: none; stroke-width: 1; stroke-dasharray: none; stroke-linecap: butt; stroke-dashoffset: 0; stroke-linejoin: miter; stroke-miterlimit: 4; fill: rgb(238,234,249); fill-rule: nonzero; opacity: 1;" vector-effect="non-scaling-stroke"  transform=" translate(-248.32, -218.89)" d="M 270.06 194.245 C 249.448 183.88400000000001 224.995 189.479 210.762 206.385 L 199.648 200.798 L 204.671 215.547 L 210.118 231.55599999999998 L 225.195 226.70799999999997 L 241.04899999999998 221.60999999999996 L 232.468 217.29699999999997 C 242.79999999999998 208.37599999999998 259.054 206.46799999999996 273.37399999999997 213.66699999999997 C 286.89 220.46199999999996 294.924 233.46899999999997 294.941 246.36199999999997 C 294.941 246.36199999999997 294.93699999999995 246.36999999999998 294.941 246.38199999999998 C 294.96099999999996 246.66699999999997 295.154 249.23499999999999 295.78499999999997 248.66699999999997 C 295.789 248.65899999999996 295.789 248.65899999999996 295.789 248.65899999999996 L 295.793 248.65099999999995 C 300.635 227.269 290.541 204.541 270.06 194.245 z" stroke-linecap="round" />
</g>
<g transform="matrix(1 0 0 1 542.1 544.94)"  >
<path style="stroke: none; stroke-width: 1; stroke-dasharray: none; stroke-linecap: butt; stroke-dashoffset: 0; stroke-linejoin: miter; stroke-miterlimit: 4; fill: rgb(238,234,249); fill-rule: nonzero; opacity: 1;" vector-effect="non-scaling-stroke"  transform=" translate(-252.1, -273.92)" d="M 230.359 298.559 C 250.971 308.92 275.424 303.324 289.65700000000004 286.41900000000004 L 300.77000000000004 292.00600000000003 L 295.747 277.257 L 290.3 261.248 L 275.22200000000004 266.096 L 259.36800000000005 271.194 L 267.94900000000007 275.507 C 257.6170000000001 284.428 241.36300000000006 286.336 227.04300000000006 279.137 C 213.52700000000007 272.343 205.49300000000005 259.335 205.47600000000006 246.442 C 205.47600000000006 246.442 205.48000000000005 246.434 205.47600000000006 246.422 C 205.45600000000005 246.137 205.26300000000006 243.569 204.63200000000006 244.137 C 204.62800000000007 244.145 204.62800000000007 244.145 204.62800000000007 244.145 L 204.62400000000008 244.15300000000002 C 199.784 265.535 209.877 288.263 230.359 298.559 z" stroke-linecap="round" />
</g>
<g transform="matrix(1 0 0 1 548.99 738.49)"  >
<path style="stroke: none; stroke-width: 1; stroke-dasharray: none; stroke-linecap: butt; stroke-dashoffset: 0; stroke-linejoin: miter; stroke-miterlimit: 4; fill: rgb(165,183,198); fill-rule: nonzero; opacity: 1; visibility: hidden;" vector-effect="non-scaling-stroke"  transform=" translate(-258.99, -467.47)" d="M 260.104 465.465 C 259.67199999999997 465.90799999999996 259.301 466.39599999999996 258.996 466.91799999999995 L 258.531 466.67699999999996 C 258.464 466.37899999999996 258.182 466.174 257.872 466.21099999999996 C 257.541 466.24999999999994 257.30400000000003 466.54999999999995 257.343 466.881 C 257.382 467.212 257.682 467.44899999999996 258.01300000000003 467.40999999999997 C 258.07800000000003 467.402 258.14000000000004 467.38399999999996 258.19700000000006 467.35799999999995 L 258.6480000000001 467.5919999999999 C 258.3970000000001 468.1459999999999 258.2150000000001 468.73099999999994 258.1090000000001 469.33599999999996 L 258.8550000000001 469.46799999999996 C 259.0850000000001 468.162 259.7050000000001 466.96099999999996 260.64700000000005 465.99499999999995 L 260.104 465.465 z" stroke-linecap="round" />
</g>
<g transform="matrix(1 0 0 1 554.75 733.97)"  >
<path style="stroke: none; stroke-width: 1; stroke-dasharray: none; stroke-linecap: butt; stroke-dashoffset: 0; stroke-linejoin: miter; stroke-miterlimit: 4; fill: rgb(165,183,198); fill-rule: nonzero; opacity: 1; visibility: hidden;" vector-effect="non-scaling-stroke"  transform=" translate(-264.75, -462.94)" d="M 265.592 463.163 C 265.421 463.163 265.251 463.169 265.082 463.18 L 265.008 462.55400000000003 C 265.19599999999997 462.40500000000003 265.304 462.165 265.274 461.90900000000005 C 265.228 461.5160000000001 264.872 461.23500000000007 264.479 461.28100000000006 C 264.08599999999996 461.32700000000006 263.805 461.68300000000005 263.851 462.0760000000001 C 263.881 462.3300000000001 264.04 462.5370000000001 264.256 462.6400000000001 L 264.32899999999995 463.2640000000001 C 263.61499999999995 463.3800000000001 262.92599999999993 463.5960000000001 262.26899999999995 463.91000000000014 L 262.59599999999995 464.59400000000016 C 263.53 464.14700000000016 264.53799999999995 463.92100000000016 265.59099999999995 463.92100000000016 C 266.08699999999993 463.92100000000016 266.58399999999995 463.97400000000016 267.066 464.0790000000002 L 267.227 463.3380000000002 C 266.693 463.222 266.142 463.163 265.592 463.163 z" stroke-linecap="round" />
</g>
<g transform="matrix(1 0 0 1 561.01 737.16)"  >
<path style="stroke: none; stroke-width: 1; stroke-dasharray: none; stroke-linecap: butt; stroke-dashoffset: 0; stroke-linejoin: miter; stroke-miterlimit: 4; fill: rgb(165,183,198); fill-rule: nonzero; opacity: 1; visibility: hidden;" vector-effect="non-scaling-stroke"  transform=" translate(-271.01, -466.13)" d="M 272.194 465.711 C 272.52500000000003 465.671 272.76 465.37 272.719 465.039 C 272.679 464.70799999999997 272.378 464.473 272.04699999999997 464.513 C 271.73799999999994 464.551 271.51199999999994 464.81699999999995 271.517 465.12199999999996 L 271.101 465.48499999999996 C 270.683 465.05499999999995 270.211 464.67199999999997 269.693 464.34599999999995 L 269.289 464.98699999999997 C 270.423 465.70199999999994 271.31 466.71299999999997 271.852 467.912 L 272.54299999999995 467.599 C 272.292 467.045 271.97499999999997 466.527 271.60099999999994 466.054 L 272.00299999999993 465.703 C 272.065 465.716 272.129 465.719 272.194 465.711 z" stroke-linecap="round" />
</g>
<g transform="matrix(1 0 0 1 555.81 744.84)"  >
<path style="stroke: none; stroke-width: 1; stroke-dasharray: none; stroke-linecap: butt; stroke-dashoffset: 0; stroke-linejoin: miter; stroke-miterlimit: 4; fill: rgb(165,183,198); fill-rule: nonzero; opacity: 1; visibility: hidden;" vector-effect="non-scaling-stroke"  transform=" translate(-265.81, -473.81)" d="M 265.044 473.372 C 264.65799999999996 473.39500000000004 264.269 473.40700000000004 263.887 473.40700000000004 C 263.007 473.40700000000004 262.154 473.34600000000006 261.409 473.22800000000007 C 261.019 473.16600000000005 260.563 473.0730000000001 260.139 472.9360000000001 C 261.185 474.7970000000001 263.208 476.0610000000001 265.527 476.0610000000001 C 268.382 476.0610000000001 270.789 474.1450000000001 271.477 471.5570000000001 C 270.79499999999996 472.0060000000001 269.972 472.38200000000006 269.018 472.68000000000006 C 267.839 473.047 266.464 473.286 265.044 473.372 z" stroke-linecap="round" />
</g>
<g transform="matrix(1 0 0 1 555.59 739.69)"  >
<path style="stroke: none; stroke-width: 1; stroke-dasharray: none; stroke-linecap: butt; stroke-dashoffset: 0; stroke-linejoin: miter; stroke-miterlimit: 4; fill: rgb(165,183,198); fill-rule: nonzero; opacity: 1; visibility: hidden;" vector-effect="non-scaling-stroke"  transform=" translate(-265.59, -468.66)" d="M 265.592 464.68 C 262.24 464.68 259.512 467.346 259.512 470.623 C 259.512 471.049 259.558 471.472 259.649 471.884 C 260.323 472.367 262.355 472.774 264.997 472.615 C 267.87600000000003 472.442 270.29400000000004 471.658 271.66900000000004 470.456 C 271.66400000000004 470.261 271.648 470.06600000000003 271.624 469.874 C 271.244 466.913 268.65 464.68 265.592 464.68 z M 263.432 471.194 C 262.41200000000003 471.194 261.582 470.36400000000003 261.582 469.344 C 261.582 468.324 262.412 467.49399999999997 263.432 467.49399999999997 C 264.452 467.49399999999997 265.28200000000004 468.32399999999996 265.28200000000004 469.344 C 265.282 470.365 264.452 471.194 263.432 471.194 z M 268.17 470.286 C 267.42 470.286 266.81 469.676 266.81 468.926 C 266.81 468.176 267.42 467.565 268.17 467.565 C 268.92 467.565 269.531 468.175 269.531 468.926 C 269.531 469.67699999999996 268.92 470.286 268.17 470.286 z" stroke-linecap="round" />
</g>
<g transform="matrix(1 0 0 1 568.85 740.96)"  >
<path style="stroke: none; stroke-width: 1; stroke-dasharray: none; stroke-linecap: butt; stroke-dashoffset: 0; stroke-linejoin: miter; stroke-miterlimit: 4; fill: rgb(165,183,198); fill-rule: nonzero; opacity: 1; visibility: hidden;" vector-effect="non-scaling-stroke"  transform=" translate(-278.85, -469.93)" d="M 281.595 466.547 C 281.3 466.43100000000004 280.78900000000004 466.238 280.213 466.31 C 279.66200000000003 466.379 279.369 466.651 279.369 467.317 L 279.369 468.183 L 281.59700000000004 468.183 L 281.59700000000004 469.9 L 279.369 469.9 L 279.369 475.35499999999996 L 277.437 475.35499999999996 L 277.437 469.9 L 276.09700000000004 469.9 L 276.09700000000004 468.183 L 277.437 468.183 L 277.437 467.295 C 277.437 465.615 278.333 464.512 280.005 464.512 C 280.647 464.512 281.162 464.634 281.59499999999997 464.82 L 281.595 466.547 z" stroke-linecap="round" />
</g>
<g transform="matrix(1 0 0 1 574.82 742.7)"  >
<path style="stroke: none; stroke-width: 1; stroke-dasharray: none; stroke-linecap: butt; stroke-dashoffset: 0; stroke-linejoin: miter; stroke-miterlimit: 4; fill: rgb(165,183,198); fill-rule: nonzero; opacity: 1; visibility: hidden;" vector-effect="non-scaling-stroke"  transform=" translate(-284.82, -471.67)" d="M 286.298 469.879 C 286.121 469.84900000000005 285.94 469.833 285.772 469.833 C 284.876 469.833 284.262 470.38100000000003 284.262 471.447 L 284.262 475.355 L 282.33 475.355 L 282.33 468.183 L 284.203 468.183 L 284.203 468.968 C 284.654 468.295 285.34299999999996 467.99100000000004 286.224 467.99100000000004 C 286.638 467.99100000000004 287.072 468.119 287.318 468.32800000000003 L 286.298 469.879 z" stroke-linecap="round" />
</g>
<g transform="matrix(1 0 0 1 580.41 742.79)"  >
<path style="stroke: none; stroke-width: 1; stroke-dasharray: none; stroke-linecap: butt; stroke-dashoffset: 0; stroke-linejoin: miter; stroke-miterlimit: 4; fill: rgb(165,183,198); fill-rule: nonzero; opacity: 1; visibility: hidden;" vector-effect="non-scaling-stroke"  transform=" translate(-290.41, -471.76)" d="M 293.965 471.757 C 293.965 471.979 293.95 472.246 293.928 472.408 L 288.843 472.408 C 289.05 473.444 289.776 473.896 290.68600000000004 473.896 C 291.30800000000005 473.896 291.98100000000005 473.644 292.499 473.208 L 293.63100000000003 474.451 C 292.817 475.199 291.781 475.53900000000004 290.574 475.53900000000004 C 288.37600000000003 475.53900000000004 286.851 474.04400000000004 286.851 471.78600000000006 C 286.851 469.5280000000001 288.331 467.98900000000003 290.478 467.98900000000003 C 292.544 467.99 293.958 469.522 293.965 471.757 z M 288.851 471.091 L 292.026 471.091 C 291.849 470.173 291.293 469.65500000000003 290.464 469.65500000000003 C 289.554 469.655 289.021 470.203 288.851 471.091 z" stroke-linecap="round" />
</g>
<g transform="matrix(1 0 0 1 588.06 742.79)"  >
<path style="stroke: none; stroke-width: 1; stroke-dasharray: none; stroke-linecap: butt; stroke-dashoffset: 0; stroke-linejoin: miter; stroke-miterlimit: 4; fill: rgb(165,183,198); fill-rule: nonzero; opacity: 1; visibility: hidden;" vector-effect="non-scaling-stroke"  transform=" translate(-298.06, -471.76)" d="M 301.618 471.757 C 301.618 471.979 301.603 472.246 301.581 472.408 L 296.49600000000004 472.408 C 296.70300000000003 473.444 297.42800000000005 473.896 298.33900000000006 473.896 C 298.96100000000007 473.896 299.63400000000007 473.644 300.15200000000004 473.208 L 301.28400000000005 474.451 C 300.47 475.199 299.434 475.53900000000004 298.22700000000003 475.53900000000004 C 296.02900000000005 475.53900000000004 294.504 474.04400000000004 294.504 471.78600000000006 C 294.504 469.5280000000001 295.98400000000004 467.98900000000003 298.13100000000003 467.98900000000003 C 300.197 467.99 301.611 469.522 301.618 471.757 z M 296.504 471.091 L 299.67900000000003 471.091 C 299.50100000000003 470.173 298.946 469.65500000000003 298.117 469.65500000000003 C 297.207 469.655 296.674 470.203 296.504 471.091 z" stroke-linecap="round" />
</g>
<g transform="matrix(1 0 0 1 596.21 744.18)"  >
<path style="stroke: none; stroke-width: 1; stroke-dasharray: none; stroke-linecap: butt; stroke-dashoffset: 0; stroke-linejoin: miter; stroke-miterlimit: 4; fill: rgb(165,183,198); fill-rule: nonzero; opacity: 1; visibility: hidden;" vector-effect="non-scaling-stroke"  transform=" translate(-306.21, -473.15)" d="M 309.964 471.764 C 309.964 473.918 308.469 475.539 306.493 475.539 C 305.531 475.539 304.85 475.161 304.384 474.606 L 304.384 478.314 L 302.46000000000004 478.314 L 302.46000000000004 468.18100000000004 L 304.34700000000004 468.18100000000004 L 304.34700000000004 468.973 C 304.81300000000005 468.38800000000003 305.502 467.98900000000003 306.48600000000005 467.98900000000003 C 308.469 467.99 309.964 469.61 309.964 471.764 z M 304.287 471.764 C 304.287 472.896 305.034 473.74 306.13 473.74 C 307.27 473.74 307.98 472.85900000000004 307.98 471.764 C 307.98 470.669 307.27000000000004 469.788 306.13 469.788 C 305.035 469.788 304.287 470.632 304.287 471.764 z" stroke-linecap="round" />
</g>
<g transform="matrix(1 0 0 1 601.83 741)"  >
<path style="stroke: none; stroke-width: 1; stroke-dasharray: none; stroke-linecap: butt; stroke-dashoffset: 0; stroke-linejoin: miter; stroke-miterlimit: 4; fill: rgb(165,183,198); fill-rule: nonzero; opacity: 1; visibility: hidden;" vector-effect="non-scaling-stroke"  transform=" translate(-311.84, -469.97)" d="M 313.068 465.836 C 313.068 466.53200000000004 312.52799999999996 467.065 311.832 467.065 C 311.13599999999997 467.065 310.603 466.532 310.603 465.836 C 310.603 465.14 311.136 464.593 311.832 464.593 C 312.527 464.592 313.068 465.14 313.068 465.836 z M 312.809 475.354 L 310.877 475.354 L 310.877 468.18199999999996 L 312.809 468.18199999999996 L 312.809 475.354 z" stroke-linecap="round" />
</g>
<g transform="matrix(1 0 0 1 607.61 741.06)"  >
<path style="stroke: none; stroke-width: 1; stroke-dasharray: none; stroke-linecap: butt; stroke-dashoffset: 0; stroke-linejoin: miter; stroke-miterlimit: 4; fill: rgb(165,183,198); fill-rule: nonzero; opacity: 1; visibility: hidden;" vector-effect="non-scaling-stroke"  transform=" translate(-317.61, -470.03)" d="M 316.032 470.736 L 318.734 468.182 L 321.102 468.182 L 317.623 471.557 L 321.12399999999997 475.35400000000004 L 318.748 475.35400000000004 L 316.032 472.45300000000003 L 316.032 475.35400000000004 L 314.1 475.35400000000004 L 314.1 464.696 L 316.03200000000004 464.696 L 316.03200000000004 470.736 z" stroke-linecap="round" />
</g>
<g transform="matrix(1 0 0 1 472.2 741.52)"  >
<path style="stroke: none; stroke-width: 1; stroke-dasharray: none; stroke-linecap: butt; stroke-dashoffset: 0; stroke-linejoin: miter; stroke-miterlimit: 4; fill: rgb(165,183,198); fill-rule: nonzero; opacity: 1; visibility: hidden;" vector-effect="non-scaling-stroke"  transform=" translate(-182.19, -470.49)" d="M 184.412 475.289 L 184.412 474.234 C 183.88500000000002 474.952 183.02100000000002 475.464 182.025 475.464 C 180.179 475.464 178.876 474.058 178.876 471.758 C 178.876 469.502 180.165 468.037 182.025 468.037 C 182.977 468.037 183.841 468.506 184.412 469.282 L 184.412 465.517 L 185.511 465.517 L 185.511 475.287 L 184.412 475.287 z M 184.412 473.37 L 184.412 470.162 C 184.017 469.54699999999997 183.167 469.019 182.288 469.019 C 180.86700000000002 469.019 180.018 470.19100000000003 180.018 471.758 C 180.018 473.325 180.868 474.48199999999997 182.288 474.48199999999997 C 183.168 474.483 184.017 473.986 184.412 473.37 z" stroke-linecap="round" />
</g>
<g transform="matrix(1 0 0 1 480.37 742.78)"  >
<path style="stroke: none; stroke-width: 1; stroke-dasharray: none; stroke-linecap: butt; stroke-dashoffset: 0; stroke-linejoin: miter; stroke-miterlimit: 4; fill: rgb(165,183,198); fill-rule: nonzero; opacity: 1; visibility: hidden;" vector-effect="non-scaling-stroke"  transform=" translate(-190.37, -471.75)" d="M 186.932 471.744 C 186.932 469.69300000000004 188.397 468.038 190.41799999999998 468.038 C 192.557 468.038 193.81599999999997 469.708 193.81599999999997 471.832 L 193.81599999999997 472.111 L 188.08899999999997 472.111 C 188.17699999999996 473.444 189.11399999999998 474.557 190.63799999999998 474.557 C 191.44299999999998 474.557 192.26399999999998 474.235 192.81999999999996 473.663 L 193.34699999999995 474.38100000000003 C 192.64399999999995 475.084 191.69199999999995 475.46500000000003 190.53499999999994 475.46500000000003 C 188.44 475.465 186.932 473.956 186.932 471.744 z M 190.403 468.947 C 188.894 468.947 188.147 470.221 188.089 471.305 L 192.732 471.305 C 192.718 470.25 192.015 468.947 190.403 468.947 z" stroke-linecap="round" />
</g>
<g transform="matrix(1 0 0 1 487.43 742.78)"  >
<path style="stroke: none; stroke-width: 1; stroke-dasharray: none; stroke-linecap: butt; stroke-dashoffset: 0; stroke-linejoin: miter; stroke-miterlimit: 4; fill: rgb(165,183,198); fill-rule: nonzero; opacity: 1; visibility: hidden;" vector-effect="non-scaling-stroke"  transform=" translate(-197.43, -471.75)" d="M 194.607 474.351 L 195.178 473.56 C 195.647 474.102 196.54 474.571 197.507 474.571 C 198.591 474.571 199.177 474.05800000000005 199.177 473.355 C 199.177 471.641 194.797 472.696 194.797 470.074 C 194.797 468.976 195.749 468.038 197.433 468.038 C 198.634 468.038 199.48399999999998 468.492 200.055 469.064 L 199.542 469.826 C 199.118 469.31300000000005 198.341 468.932 197.433 468.932 C 196.46599999999998 468.932 195.86599999999999 469.415 195.86599999999999 470.045 C 195.86599999999999 471.59700000000004 200.24599999999998 470.572 200.24599999999998 473.326 C 200.24599999999998 474.51300000000003 199.29399999999998 475.464 197.463 475.464 C 196.306 475.465 195.325 475.113 194.607 474.351 z" stroke-linecap="round" />
</g>
<g transform="matrix(1 0 0 1 492.22 741.53)"  >
<path style="stroke: none; stroke-width: 1; stroke-dasharray: none; stroke-linecap: butt; stroke-dashoffset: 0; stroke-linejoin: miter; stroke-miterlimit: 4; fill: rgb(165,183,198); fill-rule: nonzero; opacity: 1; visibility: hidden;" vector-effect="non-scaling-stroke"  transform=" translate(-202.22, -470.51)" d="M 201.477 466.471 C 201.477 466.061 201.814 465.724 202.209 465.724 C 202.619 465.724 202.95600000000002 466.061 202.95600000000002 466.471 C 202.95600000000002 466.88100000000003 202.61900000000003 467.20300000000003 202.209 467.20300000000003 C 201.814 467.203 201.477 466.881 201.477 466.471 z M 201.667 475.289 L 201.667 468.214 L 202.766 468.214 L 202.766 475.289 L 201.667 475.289 z" stroke-linecap="round" />
</g>
<g transform="matrix(1 0 0 1 497.5 744.13)"  >
<path style="stroke: none; stroke-width: 1; stroke-dasharray: none; stroke-linecap: butt; stroke-dashoffset: 0; stroke-linejoin: miter; stroke-miterlimit: 4; fill: rgb(165,183,198); fill-rule: nonzero; opacity: 1; visibility: hidden;" vector-effect="non-scaling-stroke"  transform=" translate(-207.5, -473.1)" d="M 204.582 477.105 L 205.138 476.285 C 205.72400000000002 476.988 206.427 477.252 207.43800000000002 477.252 C 208.61 477.252 209.70800000000003 476.681 209.70800000000003 475.128 L 209.70800000000003 474.11699999999996 C 209.19500000000002 474.835 208.33100000000002 475.37699999999995 207.33500000000004 475.37699999999995 C 205.49000000000004 475.37699999999995 204.18600000000004 473.99999999999994 204.18600000000004 471.715 C 204.18600000000004 469.445 205.47500000000002 468.03799999999995 207.33500000000004 468.03799999999995 C 208.28700000000003 468.03799999999995 209.13700000000003 468.50699999999995 209.70800000000003 469.28299999999996 L 209.70800000000003 468.21399999999994 L 210.80600000000004 468.21399999999994 L 210.80600000000004 475.08399999999995 C 210.80600000000004 477.42799999999994 209.16500000000005 478.15999999999997 207.43700000000004 478.15999999999997 C 206.237 478.16 205.417 477.926 204.582 477.105 z M 209.709 473.253 L 209.709 470.162 C 209.328 469.54699999999997 208.479 469.019 207.6 469.019 C 206.179 469.019 205.32999999999998 470.147 205.32999999999998 471.714 C 205.32999999999998 473.267 206.17899999999997 474.409 207.6 474.409 C 208.478 474.41 209.328 473.868 209.709 473.253 z" stroke-linecap="round" />
</g>
<g transform="matrix(1 0 0 1 505.58 742.7)"  >
<path style="stroke: none; stroke-width: 1; stroke-dasharray: none; stroke-linecap: butt; stroke-dashoffset: 0; stroke-linejoin: miter; stroke-miterlimit: 4; fill: rgb(165,183,198); fill-rule: nonzero; opacity: 1; visibility: hidden;" vector-effect="non-scaling-stroke"  transform=" translate(-215.57, -471.66)" d="M 217.413 475.289 L 217.413 470.65999999999997 C 217.413 469.41499999999996 216.78300000000002 469.01899999999995 215.83100000000002 469.01899999999995 C 214.966 469.01899999999995 214.14600000000002 469.54599999999994 213.73600000000002 470.11799999999994 L 213.73600000000002 475.28799999999995 L 212.63700000000003 475.28799999999995 L 212.63700000000003 468.21299999999997 L 213.73600000000002 468.21299999999997 L 213.73600000000002 469.23799999999994 C 214.234 468.65199999999993 215.20000000000002 468.0369999999999 216.25500000000002 468.0369999999999 C 217.735 468.0369999999999 218.51100000000002 468.78399999999993 218.51100000000002 470.32199999999995 L 218.51100000000002 475.28799999999995 L 217.413 475.28799999999995 z" stroke-linecap="round" />
</g>
<g transform="matrix(1 0 0 1 513.37 742.78)"  >
<path style="stroke: none; stroke-width: 1; stroke-dasharray: none; stroke-linecap: butt; stroke-dashoffset: 0; stroke-linejoin: miter; stroke-miterlimit: 4; fill: rgb(165,183,198); fill-rule: nonzero; opacity: 1; visibility: hidden;" vector-effect="non-scaling-stroke"  transform=" translate(-223.37, -471.75)" d="M 219.932 471.744 C 219.932 469.69300000000004 221.397 468.038 223.41799999999998 468.038 C 225.557 468.038 226.81599999999997 469.708 226.81599999999997 471.832 L 226.81599999999997 472.111 L 221.08899999999997 472.111 C 221.17699999999996 473.444 222.11399999999998 474.557 223.63799999999998 474.557 C 224.444 474.557 225.26399999999998 474.235 225.82099999999997 473.663 L 226.34799999999996 474.38100000000003 C 225.64499999999995 475.084 224.69299999999996 475.46500000000003 223.53599999999994 475.46500000000003 C 221.441 475.465 219.932 473.956 219.932 471.744 z M 223.404 468.947 C 221.895 468.947 221.148 470.221 221.09 471.305 L 225.733 471.305 C 225.718 470.25 225.015 468.947 223.404 468.947 z" stroke-linecap="round" />
</g>
<g transform="matrix(1 0 0 1 521.13 741.52)"  >
<path style="stroke: none; stroke-width: 1; stroke-dasharray: none; stroke-linecap: butt; stroke-dashoffset: 0; stroke-linejoin: miter; stroke-miterlimit: 4; fill: rgb(165,183,198); fill-rule: nonzero; opacity: 1; visibility: hidden;" vector-effect="non-scaling-stroke"  transform=" translate(-231.13, -470.49)" d="M 233.35 475.289 L 233.35 474.234 C 232.823 474.952 231.958 475.464 230.962 475.464 C 229.11599999999999 475.464 227.813 474.058 227.813 471.758 C 227.813 469.502 229.10199999999998 468.037 230.962 468.037 C 231.914 468.037 232.779 468.506 233.35 469.282 L 233.35 465.517 L 234.448 465.517 L 234.448 475.287 L 233.35 475.287 z M 233.35 473.37 L 233.35 470.162 C 232.954 469.54699999999997 232.105 469.019 231.226 469.019 C 229.805 469.019 228.956 470.19100000000003 228.956 471.758 C 228.956 473.325 229.80499999999998 474.48199999999997 231.226 474.48199999999997 C 232.105 474.483 232.954 473.986 233.35 473.37 z" stroke-linecap="round" />
</g>
<g transform="matrix(1 0 0 1 533.01 741.52)"  >
<path style="stroke: none; stroke-width: 1; stroke-dasharray: none; stroke-linecap: butt; stroke-dashoffset: 0; stroke-linejoin: miter; stroke-miterlimit: 4; fill: rgb(165,183,198); fill-rule: nonzero; opacity: 1; visibility: hidden;" vector-effect="non-scaling-stroke"  transform=" translate(-243.01, -470.49)" d="M 239.692 475.289 L 239.692 465.519 L 240.79000000000002 465.519 L 240.79000000000002 469.284 C 241.36200000000002 468.508 242.211 468.039 243.17800000000003 468.039 C 245.02300000000002 468.039 246.32700000000003 469.50399999999996 246.32700000000003 471.76 C 246.32700000000003 474.05899999999997 245.02300000000002 475.466 243.17800000000003 475.466 C 242.18200000000002 475.466 241.318 474.95300000000003 240.79000000000002 474.236 L 240.79000000000002 475.291 L 239.692 475.291 z M 242.9 474.483 C 244.336 474.483 245.185 473.326 245.185 471.759 C 245.185 470.19100000000003 244.335 469.02000000000004 242.9 469.02000000000004 C 242.036 469.02000000000004 241.172 469.547 240.791 470.163 L 240.791 473.37100000000004 C 241.171 473.986 242.036 474.483 242.9 474.483 z" stroke-linecap="round" />
</g>
<g transform="matrix(1 0 0 1 540.24 744.21)"  >
<path style="stroke: none; stroke-width: 1; stroke-dasharray: none; stroke-linecap: butt; stroke-dashoffset: 0; stroke-linejoin: miter; stroke-miterlimit: 4; fill: rgb(165,183,198); fill-rule: nonzero; opacity: 1; visibility: hidden;" vector-effect="non-scaling-stroke"  transform=" translate(-250.24, -473.19)" d="M 247.528 477.061 C 247.689 477.13399999999996 247.953 477.178 248.129 477.178 C 248.612 477.178 248.934 477.017 249.184 476.431 L 249.653 475.36199999999997 L 246.694 468.21399999999994 L 247.881 468.21399999999994 L 250.239 474.01399999999995 L 252.583 468.21399999999994 L 253.784 468.21399999999994 L 250.239 476.72399999999993 C 249.814 477.7489999999999 249.096 478.1449999999999 248.159 478.15899999999993 C 247.92499999999998 478.15899999999993 247.558 478.11499999999995 247.35399999999998 478.0559999999999 L 247.528 477.061 z" stroke-linecap="round" />
</g>
<g transform="matrix(1 0 0 1 548.99 738.49)"  >
<path style="stroke: none; stroke-width: 1; stroke-dasharray: none; stroke-linecap: butt; stroke-dashoffset: 0; stroke-linejoin: miter; stroke-miterlimit: 4; fill: rgb(249,251,252); fill-rule: nonzero; opacity: 1; visibility: hidden;" vector-effect="non-scaling-stroke"  transform=" translate(-258.99, -467.47)" d="M 260.104 465.465 C 259.67199999999997 465.90799999999996 259.301 466.39599999999996 258.996 466.91799999999995 L 258.531 466.67699999999996 C 258.464 466.37899999999996 258.182 466.174 257.872 466.21099999999996 C 257.541 466.24999999999994 257.30400000000003 466.54999999999995 257.343 466.881 C 257.382 467.212 257.682 467.44899999999996 258.01300000000003 467.40999999999997 C 258.07800000000003 467.402 258.14000000000004 467.38399999999996 258.19700000000006 467.35799999999995 L 258.6480000000001 467.5919999999999 C 258.3970000000001 468.1459999999999 258.2150000000001 468.73099999999994 258.1090000000001 469.33599999999996 L 258.8550000000001 469.46799999999996 C 259.0850000000001 468.162 259.7050000000001 466.96099999999996 260.64700000000005 465.99499999999995 L 260.104 465.465 z" stroke-linecap="round" />
</g>
<g transform="matrix(1 0 0 1 554.75 733.97)"  >
<path style="stroke: none; stroke-width: 1; stroke-dasharray: none; stroke-linecap: butt; stroke-dashoffset: 0; stroke-linejoin: miter; stroke-miterlimit: 4; fill: rgb(249,251,252); fill-rule: nonzero; opacity: 1; visibility: hidden;" vector-effect="non-scaling-stroke"  transform=" translate(-264.75, -462.94)" d="M 265.592 463.163 C 265.421 463.163 265.251 463.169 265.082 463.18 L 265.008 462.55400000000003 C 265.19599999999997 462.40500000000003 265.304 462.165 265.274 461.90900000000005 C 265.228 461.5160000000001 264.872 461.23500000000007 264.479 461.28100000000006 C 264.08599999999996 461.32700000000006 263.805 461.68300000000005 263.851 462.0760000000001 C 263.881 462.3300000000001 264.04 462.5370000000001 264.256 462.6400000000001 L 264.32899999999995 463.2640000000001 C 263.61499999999995 463.3800000000001 262.92599999999993 463.5960000000001 262.26899999999995 463.91000000000014 L 262.59599999999995 464.59400000000016 C 263.53 464.14700000000016 264.53799999999995 463.92100000000016 265.59099999999995 463.92100000000016 C 266.08699999999993 463.92100000000016 266.58399999999995 463.97400000000016 267.066 464.0790000000002 L 267.227 463.3380000000002 C 266.693 463.222 266.142 463.163 265.592 463.163 z" stroke-linecap="round" />
</g>
<g transform="matrix(1 0 0 1 561.01 737.16)"  >
<path style="stroke: none; stroke-width: 1; stroke-dasharray: none; stroke-linecap: butt; stroke-dashoffset: 0; stroke-linejoin: miter; stroke-miterlimit: 4; fill: rgb(249,251,252); fill-rule: nonzero; opacity: 1; visibility: hidden;" vector-effect="non-scaling-stroke"  transform=" translate(-271.01, -466.13)" d="M 272.194 465.711 C 272.52500000000003 465.671 272.76 465.37 272.719 465.039 C 272.679 464.70799999999997 272.378 464.473 272.04699999999997 464.513 C 271.73799999999994 464.551 271.51199999999994 464.81699999999995 271.517 465.12199999999996 L 271.101 465.48499999999996 C 270.683 465.05499999999995 270.211 464.67199999999997 269.693 464.34599999999995 L 269.289 464.98699999999997 C 270.423 465.70199999999994 271.31 466.71299999999997 271.852 467.912 L 272.54299999999995 467.599 C 272.292 467.045 271.97499999999997 466.527 271.60099999999994 466.054 L 272.00299999999993 465.703 C 272.065 465.716 272.129 465.719 272.194 465.711 z" stroke-linecap="round" />
</g>
<g transform="matrix(1 0 0 1 555.81 744.84)"  >
<path style="stroke: none; stroke-width: 1; stroke-dasharray: none; stroke-linecap: butt; stroke-dashoffset: 0; stroke-linejoin: miter; stroke-miterlimit: 4; fill: rgb(249,251,252); fill-rule: nonzero; opacity: 1; visibility: hidden;" vector-effect="non-scaling-stroke"  transform=" translate(-265.81, -473.81)" d="M 265.044 473.372 C 264.65799999999996 473.39500000000004 264.269 473.40700000000004 263.887 473.40700000000004 C 263.007 473.40700000000004 262.154 473.34600000000006 261.409 473.22800000000007 C 261.019 473.16600000000005 260.563 473.0730000000001 260.139 472.9360000000001 C 261.185 474.7970000000001 263.208 476.0610000000001 265.527 476.0610000000001 C 268.382 476.0610000000001 270.789 474.1450000000001 271.477 471.5570000000001 C 270.79499999999996 472.0060000000001 269.972 472.38200000000006 269.018 472.68000000000006 C 267.839 473.047 266.464 473.286 265.044 473.372 z" stroke-linecap="round" />
</g>
<g transform="matrix(1 0 0 1 555.59 739.69)"  >
<path style="stroke: none; stroke-width: 1; stroke-dasharray: none; stroke-linecap: butt; stroke-dashoffset: 0; stroke-linejoin: miter; stroke-miterlimit: 4; fill: rgb(249,251,252); fill-rule: nonzero; opacity: 1; visibility: hidden;" vector-effect="non-scaling-stroke"  transform=" translate(-265.59, -468.66)" d="M 265.592 464.68 C 262.24 464.68 259.512 467.346 259.512 470.623 C 259.512 471.049 259.558 471.472 259.649 471.884 C 260.323 472.367 262.355 472.774 264.997 472.615 C 267.87600000000003 472.442 270.29400000000004 471.658 271.66900000000004 470.456 C 271.66400000000004 470.261 271.648 470.06600000000003 271.624 469.874 C 271.244 466.913 268.65 464.68 265.592 464.68 z M 263.432 471.194 C 262.41200000000003 471.194 261.582 470.36400000000003 261.582 469.344 C 261.582 468.324 262.412 467.49399999999997 263.432 467.49399999999997 C 264.452 467.49399999999997 265.28200000000004 468.32399999999996 265.28200000000004 469.344 C 265.282 470.365 264.452 471.194 263.432 471.194 z M 268.17 470.286 C 267.42 470.286 266.81 469.676 266.81 468.926 C 266.81 468.176 267.42 467.565 268.17 467.565 C 268.92 467.565 269.531 468.175 269.531 468.926 C 269.531 469.67699999999996 268.92 470.286 268.17 470.286 z" stroke-linecap="round" />
</g>
<g transform="matrix(1 0 0 1 568.85 740.96)"  >
<path style="stroke: none; stroke-width: 1; stroke-dasharray: none; stroke-linecap: butt; stroke-dashoffset: 0; stroke-linejoin: miter; stroke-miterlimit: 4; fill: rgb(249,251,252); fill-rule: nonzero; opacity: 1; visibility: hidden;" vector-effect="non-scaling-stroke"  transform=" translate(-278.85, -469.93)" d="M 281.595 466.547 C 281.3 466.43100000000004 280.78900000000004 466.238 280.213 466.31 C 279.66200000000003 466.379 279.369 466.651 279.369 467.317 L 279.369 468.183 L 281.59700000000004 468.183 L 281.59700000000004 469.9 L 279.369 469.9 L 279.369 475.35499999999996 L 277.437 475.35499999999996 L 277.437 469.9 L 276.09700000000004 469.9 L 276.09700000000004 468.183 L 277.437 468.183 L 277.437 467.295 C 277.437 465.615 278.333 464.512 280.005 464.512 C 280.647 464.512 281.162 464.634 281.59499999999997 464.82 L 281.595 466.547 z" stroke-linecap="round" />
</g>
<g transform="matrix(1 0 0 1 574.82 742.7)"  >
<path style="stroke: none; stroke-width: 1; stroke-dasharray: none; stroke-linecap: butt; stroke-dashoffset: 0; stroke-linejoin: miter; stroke-miterlimit: 4; fill: rgb(249,251,252); fill-rule: nonzero; opacity: 1; visibility: hidden;" vector-effect="non-scaling-stroke"  transform=" translate(-284.82, -471.67)" d="M 286.298 469.879 C 286.121 469.84900000000005 285.94 469.833 285.772 469.833 C 284.876 469.833 284.262 470.38100000000003 284.262 471.447 L 284.262 475.355 L 282.33 475.355 L 282.33 468.183 L 284.203 468.183 L 284.203 468.968 C 284.654 468.295 285.34299999999996 467.99100000000004 286.224 467.99100000000004 C 286.638 467.99100000000004 287.072 468.119 287.318 468.32800000000003 L 286.298 469.879 z" stroke-linecap="round" />
</g>
<g transform="matrix(1 0 0 1 580.41 742.79)"  >
<path style="stroke: none; stroke-width: 1; stroke-dasharray: none; stroke-linecap: butt; stroke-dashoffset: 0; stroke-linejoin: miter; stroke-miterlimit: 4; fill: rgb(249,251,252); fill-rule: nonzero; opacity: 1; visibility: hidden;" vector-effect="non-scaling-stroke"  transform=" translate(-290.41, -471.76)" d="M 293.965 471.757 C 293.965 471.979 293.95 472.246 293.928 472.408 L 288.843 472.408 C 289.05 473.444 289.776 473.896 290.68600000000004 473.896 C 291.30800000000005 473.896 291.98100000000005 473.644 292.499 473.208 L 293.63100000000003 474.451 C 292.817 475.199 291.781 475.53900000000004 290.574 475.53900000000004 C 288.37600000000003 475.53900000000004 286.851 474.04400000000004 286.851 471.78600000000006 C 286.851 469.5280000000001 288.331 467.98900000000003 290.478 467.98900000000003 C 292.544 467.99 293.958 469.522 293.965 471.757 z M 288.851 471.091 L 292.026 471.091 C 291.849 470.173 291.293 469.65500000000003 290.464 469.65500000000003 C 289.554 469.655 289.021 470.203 288.851 471.091 z" stroke-linecap="round" />
</g>
<g transform="matrix(1 0 0 1 588.06 742.79)"  >
<path style="stroke: none; stroke-width: 1; stroke-dasharray: none; stroke-linecap: butt; stroke-dashoffset: 0; stroke-linejoin: miter; stroke-miterlimit: 4; fill: rgb(249,251,252); fill-rule: nonzero; opacity: 1; visibility: hidden;" vector-effect="non-scaling-stroke"  transform=" translate(-298.06, -471.76)" d="M 301.618 471.757 C 301.618 471.979 301.603 472.246 301.581 472.408 L 296.49600000000004 472.408 C 296.70300000000003 473.444 297.42800000000005 473.896 298.33900000000006 473.896 C 298.96100000000007 473.896 299.63400000000007 473.644 300.15200000000004 473.208 L 301.28400000000005 474.451 C 300.47 475.199 299.434 475.53900000000004 298.22700000000003 475.53900000000004 C 296.02900000000005 475.53900000000004 294.504 474.04400000000004 294.504 471.78600000000006 C 294.504 469.5280000000001 295.98400000000004 467.98900000000003 298.13100000000003 467.98900000000003 C 300.197 467.99 301.611 469.522 301.618 471.757 z M 296.504 471.091 L 299.67900000000003 471.091 C 299.50100000000003 470.173 298.946 469.65500000000003 298.117 469.65500000000003 C 297.207 469.655 296.674 470.203 296.504 471.091 z" stroke-linecap="round" />
</g>
<g transform="matrix(1 0 0 1 596.21 744.18)"  >
<path style="stroke: none; stroke-width: 1; stroke-dasharray: none; stroke-linecap: butt; stroke-dashoffset: 0; stroke-linejoin: miter; stroke-miterlimit: 4; fill: rgb(249,251,252); fill-rule: nonzero; opacity: 1; visibility: hidden;" vector-effect="non-scaling-stroke"  transform=" translate(-306.21, -473.15)" d="M 309.964 471.764 C 309.964 473.918 308.469 475.539 306.493 475.539 C 305.531 475.539 304.85 475.161 304.384 474.606 L 304.384 478.314 L 302.46000000000004 478.314 L 302.46000000000004 468.18100000000004 L 304.34700000000004 468.18100000000004 L 304.34700000000004 468.973 C 304.81300000000005 468.38800000000003 305.502 467.98900000000003 306.48600000000005 467.98900000000003 C 308.469 467.99 309.964 469.61 309.964 471.764 z M 304.287 471.764 C 304.287 472.896 305.034 473.74 306.13 473.74 C 307.27 473.74 307.98 472.85900000000004 307.98 471.764 C 307.98 470.669 307.27000000000004 469.788 306.13 469.788 C 305.035 469.788 304.287 470.632 304.287 471.764 z" stroke-linecap="round" />
</g>
<g transform="matrix(1 0 0 1 601.83 741)"  >
<path style="stroke: none; stroke-width: 1; stroke-dasharray: none; stroke-linecap: butt; stroke-dashoffset: 0; stroke-linejoin: miter; stroke-miterlimit: 4; fill: rgb(249,251,252); fill-rule: nonzero; opacity: 1; visibility: hidden;" vector-effect="non-scaling-stroke"  transform=" translate(-311.84, -469.97)" d="M 313.068 465.836 C 313.068 466.53200000000004 312.52799999999996 467.065 311.832 467.065 C 311.13599999999997 467.065 310.603 466.532 310.603 465.836 C 310.603 465.14 311.136 464.593 311.832 464.593 C 312.527 464.592 313.068 465.14 313.068 465.836 z M 312.809 475.354 L 310.877 475.354 L 310.877 468.18199999999996 L 312.809 468.18199999999996 L 312.809 475.354 z" stroke-linecap="round" />
</g>
<g transform="matrix(1 0 0 1 607.61 741.06)"  >
<path style="stroke: none; stroke-width: 1; stroke-dasharray: none; stroke-linecap: butt; stroke-dashoffset: 0; stroke-linejoin: miter; stroke-miterlimit: 4; fill: rgb(249,251,252); fill-rule: nonzero; opacity: 1; visibility: hidden;" vector-effect="non-scaling-stroke"  transform=" translate(-317.61, -470.03)" d="M 316.032 470.736 L 318.734 468.182 L 321.102 468.182 L 317.623 471.557 L 321.12399999999997 475.35400000000004 L 318.748 475.35400000000004 L 316.032 472.45300000000003 L 316.032 475.35400000000004 L 314.1 475.35400000000004 L 314.1 464.696 L 316.03200000000004 464.696 L 316.03200000000004 470.736 z" stroke-linecap="round" />
</g>
<g transform="matrix(1 0 0 1 472.2 741.52)"  >
<path style="stroke: none; stroke-width: 1; stroke-dasharray: none; stroke-linecap: butt; stroke-dashoffset: 0; stroke-linejoin: miter; stroke-miterlimit: 4; fill: rgb(249,251,252); fill-rule: nonzero; opacity: 1; visibility: hidden;" vector-effect="non-scaling-stroke"  transform=" translate(-182.19, -470.49)" d="M 184.412 475.289 L 184.412 474.234 C 183.88500000000002 474.952 183.02100000000002 475.464 182.025 475.464 C 180.179 475.464 178.876 474.058 178.876 471.758 C 178.876 469.502 180.165 468.037 182.025 468.037 C 182.977 468.037 183.841 468.506 184.412 469.282 L 184.412 465.517 L 185.511 465.517 L 185.511 475.287 L 184.412 475.287 z M 184.412 473.37 L 184.412 470.162 C 184.017 469.54699999999997 183.167 469.019 182.288 469.019 C 180.86700000000002 469.019 180.018 470.19100000000003 180.018 471.758 C 180.018 473.325 180.868 474.48199999999997 182.288 474.48199999999997 C 183.168 474.483 184.017 473.986 184.412 473.37 z" stroke-linecap="round" />
</g>
<g transform="matrix(1 0 0 1 480.37 742.78)"  >
<path style="stroke: none; stroke-width: 1; stroke-dasharray: none; stroke-linecap: butt; stroke-dashoffset: 0; stroke-linejoin: miter; stroke-miterlimit: 4; fill: rgb(249,251,252); fill-rule: nonzero; opacity: 1; visibility: hidden;" vector-effect="non-scaling-stroke"  transform=" translate(-190.37, -471.75)" d="M 186.932 471.744 C 186.932 469.69300000000004 188.397 468.038 190.41799999999998 468.038 C 192.557 468.038 193.81599999999997 469.708 193.81599999999997 471.832 L 193.81599999999997 472.111 L 188.08899999999997 472.111 C 188.17699999999996 473.444 189.11399999999998 474.557 190.63799999999998 474.557 C 191.44299999999998 474.557 192.26399999999998 474.235 192.81999999999996 473.663 L 193.34699999999995 474.38100000000003 C 192.64399999999995 475.084 191.69199999999995 475.46500000000003 190.53499999999994 475.46500000000003 C 188.44 475.465 186.932 473.956 186.932 471.744 z M 190.403 468.947 C 188.894 468.947 188.147 470.221 188.089 471.305 L 192.732 471.305 C 192.718 470.25 192.015 468.947 190.403 468.947 z" stroke-linecap="round" />
</g>
<g transform="matrix(1 0 0 1 487.43 742.78)"  >
<path style="stroke: none; stroke-width: 1; stroke-dasharray: none; stroke-linecap: butt; stroke-dashoffset: 0; stroke-linejoin: miter; stroke-miterlimit: 4; fill: rgb(249,251,252); fill-rule: nonzero; opacity: 1; visibility: hidden;" vector-effect="non-scaling-stroke"  transform=" translate(-197.43, -471.75)" d="M 194.607 474.351 L 195.178 473.56 C 195.647 474.102 196.54 474.571 197.507 474.571 C 198.591 474.571 199.177 474.05800000000005 199.177 473.355 C 199.177 471.641 194.797 472.696 194.797 470.074 C 194.797 468.976 195.749 468.038 197.433 468.038 C 198.634 468.038 199.48399999999998 468.492 200.055 469.064 L 199.542 469.826 C 199.118 469.31300000000005 198.341 468.932 197.433 468.932 C 196.46599999999998 468.932 195.86599999999999 469.415 195.86599999999999 470.045 C 195.86599999999999 471.59700000000004 200.24599999999998 470.572 200.24599999999998 473.326 C 200.24599999999998 474.51300000000003 199.29399999999998 475.464 197.463 475.464 C 196.306 475.465 195.325 475.113 194.607 474.351 z" stroke-linecap="round" />
</g>
<g transform="matrix(1 0 0 1 492.22 741.53)"  >
<path style="stroke: none; stroke-width: 1; stroke-dasharray: none; stroke-linecap: butt; stroke-dashoffset: 0; stroke-linejoin: miter; stroke-miterlimit: 4; fill: rgb(249,251,252); fill-rule: nonzero; opacity: 1; visibility: hidden;" vector-effect="non-scaling-stroke"  transform=" translate(-202.22, -470.51)" d="M 201.477 466.471 C 201.477 466.061 201.814 465.724 202.209 465.724 C 202.619 465.724 202.95600000000002 466.061 202.95600000000002 466.471 C 202.95600000000002 466.88100000000003 202.61900000000003 467.20300000000003 202.209 467.20300000000003 C 201.814 467.203 201.477 466.881 201.477 466.471 z M 201.667 475.289 L 201.667 468.214 L 202.766 468.214 L 202.766 475.289 L 201.667 475.289 z" stroke-linecap="round" />
</g>
<g transform="matrix(1 0 0 1 497.5 744.13)"  >
<path style="stroke: none; stroke-width: 1; stroke-dasharray: none; stroke-linecap: butt; stroke-dashoffset: 0; stroke-linejoin: miter; stroke-miterlimit: 4; fill: rgb(249,251,252); fill-rule: nonzero; opacity: 1; visibility: hidden;" vector-effect="non-scaling-stroke"  transform=" translate(-207.5, -473.1)" d="M 204.582 477.105 L 205.138 476.285 C 205.72400000000002 476.988 206.427 477.252 207.43800000000002 477.252 C 208.61 477.252 209.70800000000003 476.681 209.70800000000003 475.128 L 209.70800000000003 474.11699999999996 C 209.19500000000002 474.835 208.33100000000002 475.37699999999995 207.33500000000004 475.37699999999995 C 205.49000000000004 475.37699999999995 204.18600000000004 473.99999999999994 204.18600000000004 471.715 C 204.18600000000004 469.445 205.47500000000002 468.03799999999995 207.33500000000004 468.03799999999995 C 208.28700000000003 468.03799999999995 209.13700000000003 468.50699999999995 209.70800000000003 469.28299999999996 L 209.70800000000003 468.21399999999994 L 210.80600000000004 468.21399999999994 L 210.80600000000004 475.08399999999995 C 210.80600000000004 477.42799999999994 209.16500000000005 478.15999999999997 207.43700000000004 478.15999999999997 C 206.237 478.16 205.417 477.926 204.582 477.105 z M 209.709 473.253 L 209.709 470.162 C 209.328 469.54699999999997 208.479 469.019 207.6 469.019 C 206.179 469.019 205.32999999999998 470.147 205.32999999999998 471.714 C 205.32999999999998 473.267 206.17899999999997 474.409 207.6 474.409 C 208.478 474.41 209.328 473.868 209.709 473.253 z" stroke-linecap="round" />
</g>
<g transform="matrix(1 0 0 1 505.58 742.7)"  >
<path style="stroke: none; stroke-width: 1; stroke-dasharray: none; stroke-linecap: butt; stroke-dashoffset: 0; stroke-linejoin: miter; stroke-miterlimit: 4; fill: rgb(249,251,252); fill-rule: nonzero; opacity: 1; visibility: hidden;" vector-effect="non-scaling-stroke"  transform=" translate(-215.57, -471.66)" d="M 217.413 475.289 L 217.413 470.65999999999997 C 217.413 469.41499999999996 216.78300000000002 469.01899999999995 215.83100000000002 469.01899999999995 C 214.966 469.01899999999995 214.14600000000002 469.54599999999994 213.73600000000002 470.11799999999994 L 213.73600000000002 475.28799999999995 L 212.63700000000003 475.28799999999995 L 212.63700000000003 468.21299999999997 L 213.73600000000002 468.21299999999997 L 213.73600000000002 469.23799999999994 C 214.234 468.65199999999993 215.20000000000002 468.0369999999999 216.25500000000002 468.0369999999999 C 217.735 468.0369999999999 218.51100000000002 468.78399999999993 218.51100000000002 470.32199999999995 L 218.51100000000002 475.28799999999995 L 217.413 475.28799999999995 z" stroke-linecap="round" />
</g>
<g transform="matrix(1 0 0 1 513.37 742.78)"  >
<path style="stroke: none; stroke-width: 1; stroke-dasharray: none; stroke-linecap: butt; stroke-dashoffset: 0; stroke-linejoin: miter; stroke-miterlimit: 4; fill: rgb(249,251,252); fill-rule: nonzero; opacity: 1; visibility: hidden;" vector-effect="non-scaling-stroke"  transform=" translate(-223.37, -471.75)" d="M 219.932 471.744 C 219.932 469.69300000000004 221.397 468.038 223.41799999999998 468.038 C 225.557 468.038 226.81599999999997 469.708 226.81599999999997 471.832 L 226.81599999999997 472.111 L 221.08899999999997 472.111 C 221.17699999999996 473.444 222.11399999999998 474.557 223.63799999999998 474.557 C 224.444 474.557 225.26399999999998 474.235 225.82099999999997 473.663 L 226.34799999999996 474.38100000000003 C 225.64499999999995 475.084 224.69299999999996 475.46500000000003 223.53599999999994 475.46500000000003 C 221.441 475.465 219.932 473.956 219.932 471.744 z M 223.404 468.947 C 221.895 468.947 221.148 470.221 221.09 471.305 L 225.733 471.305 C 225.718 470.25 225.015 468.947 223.404 468.947 z" stroke-linecap="round" />
</g>
<g transform="matrix(1 0 0 1 521.13 741.52)"  >
<path style="stroke: none; stroke-width: 1; stroke-dasharray: none; stroke-linecap: butt; stroke-dashoffset: 0; stroke-linejoin: miter; stroke-miterlimit: 4; fill: rgb(249,251,252); fill-rule: nonzero; opacity: 1; visibility: hidden;" vector-effect="non-scaling-stroke"  transform=" translate(-231.13, -470.49)" d="M 233.35 475.289 L 233.35 474.234 C 232.823 474.952 231.958 475.464 230.962 475.464 C 229.11599999999999 475.464 227.813 474.058 227.813 471.758 C 227.813 469.502 229.10199999999998 468.037 230.962 468.037 C 231.914 468.037 232.779 468.506 233.35 469.282 L 233.35 465.517 L 234.448 465.517 L 234.448 475.287 L 233.35 475.287 z M 233.35 473.37 L 233.35 470.162 C 232.954 469.54699999999997 232.105 469.019 231.226 469.019 C 229.805 469.019 228.956 470.19100000000003 228.956 471.758 C 228.956 473.325 229.80499999999998 474.48199999999997 231.226 474.48199999999997 C 232.105 474.483 232.954 473.986 233.35 473.37 z" stroke-linecap="round" />
</g>
<g transform="matrix(1 0 0 1 533.01 741.52)"  >
<path style="stroke: none; stroke-width: 1; stroke-dasharray: none; stroke-linecap: butt; stroke-dashoffset: 0; stroke-linejoin: miter; stroke-miterlimit: 4; fill: rgb(249,251,252); fill-rule: nonzero; opacity: 1; visibility: hidden;" vector-effect="non-scaling-stroke"  transform=" translate(-243.01, -470.49)" d="M 239.692 475.289 L 239.692 465.519 L 240.79000000000002 465.519 L 240.79000000000002 469.284 C 241.36200000000002 468.508 242.211 468.039 243.17800000000003 468.039 C 245.02300000000002 468.039 246.32700000000003 469.50399999999996 246.32700000000003 471.76 C 246.32700000000003 474.05899999999997 245.02300000000002 475.466 243.17800000000003 475.466 C 242.18200000000002 475.466 241.318 474.95300000000003 240.79000000000002 474.236 L 240.79000000000002 475.291 L 239.692 475.291 z M 242.9 474.483 C 244.336 474.483 245.185 473.326 245.185 471.759 C 245.185 470.19100000000003 244.335 469.02000000000004 242.9 469.02000000000004 C 242.036 469.02000000000004 241.172 469.547 240.791 470.163 L 240.791 473.37100000000004 C 241.171 473.986 242.036 474.483 242.9 474.483 z" stroke-linecap="round" />
</g>
<g transform="matrix(1 0 0 1 540.24 744.21)"  >
<path style="stroke: none; stroke-width: 1; stroke-dasharray: none; stroke-linecap: butt; stroke-dashoffset: 0; stroke-linejoin: miter; stroke-miterlimit: 4; fill: rgb(249,251,252); fill-rule: nonzero; opacity: 1; visibility: hidden;" vector-effect="non-scaling-stroke"  transform=" translate(-250.24, -473.19)" d="M 247.528 477.061 C 247.689 477.13399999999996 247.953 477.178 248.129 477.178 C 248.612 477.178 248.934 477.017 249.184 476.431 L 249.653 475.36199999999997 L 246.694 468.21399999999994 L 247.881 468.21399999999994 L 250.239 474.01399999999995 L 252.583 468.21399999999994 L 253.784 468.21399999999994 L 250.239 476.72399999999993 C 249.814 477.7489999999999 249.096 478.1449999999999 248.159 478.15899999999993 C 247.92499999999998 478.15899999999993 247.558 478.11499999999995 247.35399999999998 478.0559999999999 L 247.528 477.061 z" stroke-linecap="round" />
</g>
</svg>